<mxfile host="app.diagrams.net" modified="2022-03-20T23:53:37.510Z" agent="5.0 (Windows NT 10.0; Win64; x64) AppleWebKit/537.36 (KHTML, like Gecko) Chrome/99.0.4844.74 Safari/537.36" etag="DYsYOZx1k7r8DucWPdia" version="17.1.3" type="github" pages="9">
  <diagram id="E17BUZXJVHt-P3fDsBsY" name="Application">
    <mxGraphModel dx="1191" dy="713" grid="1" gridSize="10" guides="1" tooltips="1" connect="1" arrows="1" fold="1" page="1" pageScale="1" pageWidth="1169" pageHeight="827" math="0" shadow="0">
      <root>
        <mxCell id="0" />
        <mxCell id="1" parent="0" />
        <mxCell id="5lucOLhEtisHLsJaaXl3-4" value="" style="rounded=0;whiteSpace=wrap;html=1;fillColor=#dae8fc;strokeColor=#6c8ebf;" parent="1" vertex="1">
          <mxGeometry x="20" y="320" width="250" height="480" as="geometry" />
        </mxCell>
        <mxCell id="bgIms7LMxj44mg2ObQRT-48" value="" style="group;fillColor=none;" parent="1" vertex="1" connectable="0">
          <mxGeometry x="350" y="680" width="60" height="85" as="geometry" />
        </mxCell>
        <mxCell id="bgIms7LMxj44mg2ObQRT-44" value="" style="sketch=0;pointerEvents=1;shadow=0;dashed=0;html=1;strokeColor=none;fillColor=#505050;labelPosition=center;verticalLabelPosition=bottom;verticalAlign=top;outlineConnect=0;align=center;shape=mxgraph.office.users.call_center_agent;rounded=0;fontSize=13;" parent="bgIms7LMxj44mg2ObQRT-48" vertex="1">
          <mxGeometry x="7" width="46" height="55" as="geometry" />
        </mxCell>
        <mxCell id="bgIms7LMxj44mg2ObQRT-47" value="Reception" style="text;html=1;strokeColor=none;fillColor=none;align=center;verticalAlign=middle;whiteSpace=wrap;rounded=0;fontSize=13;" parent="bgIms7LMxj44mg2ObQRT-48" vertex="1">
          <mxGeometry y="55" width="60" height="30" as="geometry" />
        </mxCell>
        <UserObject label="" link="data:page/id,LLF6_lQIv8mxWUl1Rup8" id="bgIms7LMxj44mg2ObQRT-55">
          <mxCell style="group" parent="1" vertex="1" connectable="0">
            <mxGeometry x="825" y="515.01" width="85" height="90" as="geometry" />
          </mxCell>
        </UserObject>
        <mxCell id="bgIms7LMxj44mg2ObQRT-46" value="" style="sketch=0;pointerEvents=1;shadow=0;dashed=0;html=1;strokeColor=none;fillColor=#505050;labelPosition=center;verticalLabelPosition=bottom;verticalAlign=top;outlineConnect=0;align=center;shape=mxgraph.office.servers.application_server;rounded=0;fontSize=13;" parent="bgIms7LMxj44mg2ObQRT-55" vertex="1">
          <mxGeometry x="34" y="10" width="46" height="56" as="geometry" />
        </mxCell>
        <mxCell id="bgIms7LMxj44mg2ObQRT-50" value="Website app" style="text;html=1;strokeColor=none;fillColor=none;align=center;verticalAlign=middle;whiteSpace=wrap;rounded=0;fontSize=13;" parent="bgIms7LMxj44mg2ObQRT-55" vertex="1">
          <mxGeometry x="15" y="70" width="84" height="30" as="geometry" />
        </mxCell>
        <mxCell id="OC5nSUmwgI4mCA2y0-B8-10" value="" style="shape=image;html=1;verticalAlign=top;verticalLabelPosition=bottom;labelBackgroundColor=#ffffff;imageAspect=0;aspect=fixed;image=https://cdn4.iconfinder.com/data/icons/logos-3/600/React.js_logo-128.png" parent="bgIms7LMxj44mg2ObQRT-55" vertex="1">
          <mxGeometry x="4" y="10" width="30" height="30" as="geometry" />
        </mxCell>
        <UserObject label="" link="data:page/id,zF-sEraZYEUJfl2QqSFs" id="bgIms7LMxj44mg2ObQRT-56">
          <mxCell style="group" parent="1" vertex="1" connectable="0">
            <mxGeometry x="422.75" y="523" width="80.5" height="90" as="geometry" />
          </mxCell>
        </UserObject>
        <mxCell id="bgIms7LMxj44mg2ObQRT-45" value="" style="sketch=0;pointerEvents=1;shadow=0;dashed=0;html=1;strokeColor=none;fillColor=#505050;labelPosition=center;verticalLabelPosition=bottom;verticalAlign=top;outlineConnect=0;align=center;shape=mxgraph.office.servers.application_server;rounded=0;fontSize=13;" parent="bgIms7LMxj44mg2ObQRT-56" vertex="1">
          <mxGeometry x="17.25" width="46" height="56" as="geometry" />
        </mxCell>
        <mxCell id="bgIms7LMxj44mg2ObQRT-49" value="Staff app" style="text;html=1;strokeColor=none;fillColor=none;align=center;verticalAlign=middle;whiteSpace=wrap;rounded=0;fontSize=13;" parent="bgIms7LMxj44mg2ObQRT-56" vertex="1">
          <mxGeometry y="60" width="80.5" height="30" as="geometry" />
        </mxCell>
        <mxCell id="OC5nSUmwgI4mCA2y0-B8-8" value="" style="shape=image;html=1;verticalAlign=top;verticalLabelPosition=bottom;labelBackgroundColor=#ffffff;imageAspect=0;aspect=fixed;image=https://cdn4.iconfinder.com/data/icons/logos-3/600/React.js_logo-128.png" parent="bgIms7LMxj44mg2ObQRT-56" vertex="1">
          <mxGeometry x="-9.740000000000009" width="26.99" height="26.99" as="geometry" />
        </mxCell>
        <mxCell id="OC5nSUmwgI4mCA2y0-B8-9" value="" style="shape=image;html=1;verticalAlign=top;verticalLabelPosition=bottom;labelBackgroundColor=#ffffff;imageAspect=0;aspect=fixed;image=https://cdn4.iconfinder.com/data/icons/logos-brands-5/24/redux-128.png" parent="bgIms7LMxj44mg2ObQRT-56" vertex="1">
          <mxGeometry x="-6.240000000000009" y="35" width="20" height="20" as="geometry" />
        </mxCell>
        <mxCell id="bgIms7LMxj44mg2ObQRT-57" style="edgeStyle=orthogonalEdgeStyle;rounded=0;orthogonalLoop=1;jettySize=auto;html=1;fontSize=13;" parent="1" source="bgIms7LMxj44mg2ObQRT-44" target="bgIms7LMxj44mg2ObQRT-45" edge="1">
          <mxGeometry relative="1" as="geometry">
            <Array as="points">
              <mxPoint x="380" y="681" />
              <mxPoint x="380" y="551" />
            </Array>
          </mxGeometry>
        </mxCell>
        <mxCell id="bgIms7LMxj44mg2ObQRT-58" style="edgeStyle=orthogonalEdgeStyle;rounded=0;orthogonalLoop=1;jettySize=auto;html=1;fontSize=13;" parent="1" source="bgIms7LMxj44mg2ObQRT-52" target="bgIms7LMxj44mg2ObQRT-46" edge="1">
          <mxGeometry relative="1" as="geometry">
            <Array as="points">
              <mxPoint x="960" y="699.01" />
              <mxPoint x="960" y="561.01" />
            </Array>
          </mxGeometry>
        </mxCell>
        <mxCell id="bgIms7LMxj44mg2ObQRT-91" style="edgeStyle=none;rounded=0;orthogonalLoop=1;jettySize=auto;html=1;fontSize=13;startArrow=none;startFill=1;endArrow=none;endFill=0;" parent="1" source="wUKixATfxyb9YDD8hia9-1" target="bgIms7LMxj44mg2ObQRT-45" edge="1">
          <mxGeometry relative="1" as="geometry" />
        </mxCell>
        <mxCell id="bgIms7LMxj44mg2ObQRT-62" style="edgeStyle=none;rounded=0;orthogonalLoop=1;jettySize=auto;html=1;fontSize=13;endArrow=block;endFill=0;startArrow=none;startFill=0;dashed=1;" parent="1" source="bgIms7LMxj44mg2ObQRT-46" target="bgIms7LMxj44mg2ObQRT-59" edge="1">
          <mxGeometry relative="1" as="geometry" />
        </mxCell>
        <UserObject label="" link="data:page/id,SFULgICf9j-x_hfGme1A" id="bgIms7LMxj44mg2ObQRT-83">
          <mxCell style="group" parent="1" vertex="1" connectable="0">
            <mxGeometry x="389" y="170" width="125" height="96" as="geometry" />
          </mxCell>
        </UserObject>
        <mxCell id="bgIms7LMxj44mg2ObQRT-70" value="" style="sketch=0;pointerEvents=1;shadow=0;dashed=0;html=1;strokeColor=none;fillColor=#505050;labelPosition=center;verticalLabelPosition=bottom;verticalAlign=top;outlineConnect=0;align=center;shape=mxgraph.office.servers.database_server;rounded=0;fontSize=13;" parent="bgIms7LMxj44mg2ObQRT-83" vertex="1">
          <mxGeometry x="41" y="40" width="43" height="56" as="geometry" />
        </mxCell>
        <mxCell id="bgIms7LMxj44mg2ObQRT-72" value="Customer service" style="text;html=1;strokeColor=none;fillColor=none;align=center;verticalAlign=middle;whiteSpace=wrap;rounded=0;fontSize=13;" parent="bgIms7LMxj44mg2ObQRT-83" vertex="1">
          <mxGeometry width="125" height="30" as="geometry" />
        </mxCell>
        <mxCell id="X5Q_4vSoUxfV6xFfBx6R-6" value="port:8200" style="rounded=1;whiteSpace=wrap;html=1;" parent="bgIms7LMxj44mg2ObQRT-83" vertex="1">
          <mxGeometry x="70" y="40" width="66.75" height="25" as="geometry" />
        </mxCell>
        <mxCell id="OC5nSUmwgI4mCA2y0-B8-14" value="" style="shape=image;html=1;verticalAlign=top;verticalLabelPosition=bottom;labelBackgroundColor=#ffffff;imageAspect=0;aspect=fixed;image=https://cdn3.iconfinder.com/data/icons/popular-services-brands-vol-2/512/ruby-on-rails-128.png" parent="bgIms7LMxj44mg2ObQRT-83" vertex="1">
          <mxGeometry x="10" y="70" width="20" height="20" as="geometry" />
        </mxCell>
        <mxCell id="8FZnUfI9Tp_YB_s_TuEO-1" value="" style="shape=image;imageAspect=0;aspect=fixed;verticalLabelPosition=bottom;verticalAlign=top;image=https://upload.wikimedia.org/wikipedia/commons/thumb/7/73/Ruby_logo.svg/1024px-Ruby_logo.svg.png;" parent="bgIms7LMxj44mg2ObQRT-83" vertex="1">
          <mxGeometry x="10" y="42.5" width="20" height="20" as="geometry" />
        </mxCell>
        <mxCell id="bgIms7LMxj44mg2ObQRT-94" style="edgeStyle=none;rounded=0;orthogonalLoop=1;jettySize=auto;html=1;fontSize=13;startArrow=none;startFill=1;endArrow=none;endFill=0;" parent="1" source="bgIms7LMxj44mg2ObQRT-95" edge="1">
          <mxGeometry relative="1" as="geometry">
            <mxPoint x="450" y="410" as="sourcePoint" />
            <mxPoint x="450" y="520" as="targetPoint" />
          </mxGeometry>
        </mxCell>
        <mxCell id="bgIms7LMxj44mg2ObQRT-95" value="" style="sketch=0;pointerEvents=1;shadow=0;dashed=0;html=1;strokeColor=none;fillColor=#505050;labelPosition=center;verticalLabelPosition=bottom;verticalAlign=top;outlineConnect=0;align=center;shape=mxgraph.office.security.lock_with_key_security;rounded=0;fontSize=13;" parent="1" vertex="1">
          <mxGeometry x="438" y="370" width="27" height="30" as="geometry" />
        </mxCell>
        <mxCell id="bgIms7LMxj44mg2ObQRT-96" value="" style="edgeStyle=none;rounded=0;orthogonalLoop=1;jettySize=auto;html=1;fontSize=13;startArrow=classic;startFill=1;endArrow=none;endFill=0;" parent="1" source="bgIms7LMxj44mg2ObQRT-70" target="bgIms7LMxj44mg2ObQRT-95" edge="1">
          <mxGeometry relative="1" as="geometry">
            <mxPoint x="335.1903225806452" y="269" as="sourcePoint" />
            <mxPoint x="450.3096774193548" y="523" as="targetPoint" />
          </mxGeometry>
        </mxCell>
        <mxCell id="bgIms7LMxj44mg2ObQRT-105" style="edgeStyle=none;rounded=1;orthogonalLoop=1;jettySize=auto;html=1;fontSize=13;startArrow=classic;startFill=1;endArrow=none;endFill=0;" parent="1" source="sCo5RbCU_MRzpVaswboI-7" target="bgIms7LMxj44mg2ObQRT-45" edge="1">
          <mxGeometry relative="1" as="geometry">
            <mxPoint x="610" y="313" as="sourcePoint" />
          </mxGeometry>
        </mxCell>
        <mxCell id="bgIms7LMxj44mg2ObQRT-106" style="edgeStyle=none;rounded=1;orthogonalLoop=1;jettySize=auto;html=1;fontSize=13;startArrow=classic;startFill=1;endArrow=none;endFill=0;" parent="1" source="sCo5RbCU_MRzpVaswboI-7" target="bgIms7LMxj44mg2ObQRT-46" edge="1">
          <mxGeometry relative="1" as="geometry">
            <mxPoint x="692.9960170879785" y="259" as="sourcePoint" />
          </mxGeometry>
        </mxCell>
        <UserObject label="" link="data:page/id,RBX-khUak4_ubRidFVQT" id="sCo5RbCU_MRzpVaswboI-9">
          <mxCell style="group" parent="1" vertex="1" connectable="0">
            <mxGeometry x="620" y="183" width="100" height="88.01" as="geometry" />
          </mxCell>
        </UserObject>
        <mxCell id="sCo5RbCU_MRzpVaswboI-7" value="" style="sketch=0;pointerEvents=1;shadow=0;dashed=0;html=1;strokeColor=none;fillColor=#505050;labelPosition=center;verticalLabelPosition=bottom;verticalAlign=top;outlineConnect=0;align=center;shape=mxgraph.office.servers.database_server;rounded=0;fontSize=13;" parent="sCo5RbCU_MRzpVaswboI-9" vertex="1">
          <mxGeometry x="28.5" y="32.010000000000005" width="43" height="56" as="geometry" />
        </mxCell>
        <mxCell id="sCo5RbCU_MRzpVaswboI-8" value="Device service" style="text;html=1;strokeColor=none;fillColor=none;align=center;verticalAlign=middle;whiteSpace=wrap;rounded=0;fontSize=13;" parent="sCo5RbCU_MRzpVaswboI-9" vertex="1">
          <mxGeometry y="-10" width="100" height="30" as="geometry" />
        </mxCell>
        <mxCell id="OC5nSUmwgI4mCA2y0-B8-1" value="" style="shape=image;html=1;verticalAlign=top;verticalLabelPosition=bottom;labelBackgroundColor=#ffffff;imageAspect=0;aspect=fixed;image=https://cdn4.iconfinder.com/data/icons/logos-3/568/php-logo-128.png" parent="sCo5RbCU_MRzpVaswboI-9" vertex="1">
          <mxGeometry x="-5" y="29" width="30" height="30" as="geometry" />
        </mxCell>
        <mxCell id="OC5nSUmwgI4mCA2y0-B8-2" value="" style="shape=image;html=1;verticalAlign=top;verticalLabelPosition=bottom;labelBackgroundColor=#ffffff;imageAspect=0;aspect=fixed;image=https://cdn3.iconfinder.com/data/icons/popular-services-brands/512/laravel-128.png" parent="sCo5RbCU_MRzpVaswboI-9" vertex="1">
          <mxGeometry x="-0.5" y="58.99999999999999" width="21" height="21" as="geometry" />
        </mxCell>
        <UserObject label="" link="data:page/id,A0t_QMT82h10zWVFU__X" linkTarget="_blank" id="i-trvBffCiO7pJ1U6G_m-1">
          <mxCell style="group" parent="1" vertex="1" connectable="0">
            <mxGeometry x="950" y="420.5" width="183.03" height="92.5" as="geometry" />
          </mxCell>
        </UserObject>
        <mxCell id="bgIms7LMxj44mg2ObQRT-59" value="&lt;span style=&quot;color: rgba(0 , 0 , 0 , 0) ; font-family: monospace ; font-size: 0px&quot;&gt;%3CmxGraphModel%3E%3Croot%3E%3CmxCell%20id%3D%220%22%2F%3E%3CmxCell%20id%3D%221%22%20parent%3D%220%22%2F%3E%3CmxCell%20id%3D%222%22%20value%3D%22%22%20style%3D%22fontColor%3D%230066CC%3BverticalAlign%3Dtop%3BverticalLabelPosition%3Dbottom%3BlabelPosition%3Dcenter%3Balign%3Dcenter%3Bhtml%3D1%3BoutlineConnect%3D0%3BfillColor%3D%23CCCCCC%3BstrokeColor%3D%236881B3%3BgradientColor%3Dnone%3BgradientDirection%3Dnorth%3BstrokeWidth%3D2%3Bshape%3Dmxgraph.networks.pc%3Brounded%3D0%3BfontSize%3D13%3B%22%20vertex%3D%221%22%20parent%3D%221%22%3E%3CmxGeometry%20x%3D%221023.2%22%20y%3D%22117.99%22%20width%3D%2250%22%20height%3D%2240%22%20as%3D%22geometry%22%2F%3E%3C%2FmxCell%3E%3CmxCell%20id%3D%223%22%20value%3D%22Instances%22%20style%3D%22text%3Bhtml%3D1%3BstrokeColor%3Dnone%3BfillColor%3Dnone%3Balign%3Dcenter%3BverticalAlign%3Dmiddle%3BwhiteSpace%3Dwrap%3Brounded%3D0%3BfontSize%3D13%3B%22%20vertex%3D%221%22%20parent%3D%221%22%3E%3CmxGeometry%20x%3D%22983.2%22%20y%3D%22167.99%22%20width%3D%2270%22%20height%3D%2230%22%20as%3D%22geometry%22%2F%3E%3C%2FmxCell%3E%3C%2Froot%3E%3C%2FmxGraphModel%3E&lt;/span&gt;&lt;span style=&quot;color: rgba(0 , 0 , 0 , 0) ; font-family: monospace ; font-size: 0px&quot;&gt;%3CmxGraphModel%3E%3Croot%3E%3CmxCell%20id%3D%220%22%2F%3E%3CmxCell%20id%3D%221%22%20parent%3D%220%22%2F%3E%3CmxCell%20id%3D%222%22%20value%3D%22%22%20style%3D%22fontColor%3D%230066CC%3BverticalAlign%3Dtop%3BverticalLabelPosition%3Dbottom%3BlabelPosition%3Dcenter%3Balign%3Dcenter%3Bhtml%3D1%3BoutlineConnect%3D0%3BfillColor%3D%23CCCCCC%3BstrokeColor%3D%236881B3%3BgradientColor%3Dnone%3BgradientDirection%3Dnorth%3BstrokeWidth%3D2%3Bshape%3Dmxgraph.networks.pc%3Brounded%3D0%3BfontSize%3D13%3B%22%20vertex%3D%221%22%20parent%3D%221%22%3E%3CmxGeometry%20x%3D%221023.2%22%20y%3D%22117.99%22%20width%3D%2250%22%20height%3D%2240%22%20as%3D%22geometry%22%2F%3E%3C%2FmxCell%3E%3CmxCell%20id%3D%223%22%20value%3D%22Instances%22%20style%3D%22text%3Bhtml%3D1%3BstrokeColor%3Dnone%3BfillColor%3Dnone%3Balign%3Dcenter%3BverticalAlign%3Dmiddle%3BwhiteSpace%3Dwrap%3Brounded%3D0%3BfontSize%3D13%3B%22%20vertex%3D%221%22%20parent%3D%221%22%3E%3CmxGeometry%20x%3D%22983.2%22%20y%3D%22167.99%22%20width%3D%2270%22%20height%3D%2230%22%20as%3D%22geometry%22%2F%3E%3C%2FmxCell%3E%3C%2Froot%3E%3C%2FmxGraphModel%3E&lt;/span&gt;" style="sketch=0;pointerEvents=1;shadow=0;dashed=0;html=1;strokeColor=none;fillColor=#505050;labelPosition=center;verticalLabelPosition=bottom;verticalAlign=top;outlineConnect=0;align=center;shape=mxgraph.office.servers.database_server;rounded=0;fontSize=13;" parent="i-trvBffCiO7pJ1U6G_m-1" vertex="1">
          <mxGeometry x="6.6200000000000045" width="43" height="56" as="geometry" />
        </mxCell>
        <mxCell id="X5Q_4vSoUxfV6xFfBx6R-4" value="port:8400" style="rounded=1;whiteSpace=wrap;html=1;" parent="i-trvBffCiO7pJ1U6G_m-1" vertex="1">
          <mxGeometry x="34.76" width="66.75" height="25" as="geometry" />
        </mxCell>
        <mxCell id="OC5nSUmwgI4mCA2y0-B8-6" value="" style="dashed=0;outlineConnect=0;html=1;align=center;labelPosition=center;verticalLabelPosition=bottom;verticalAlign=top;shape=mxgraph.weblogos.java" parent="i-trvBffCiO7pJ1U6G_m-1" vertex="1">
          <mxGeometry x="58.129999999999995" y="32.5" width="20" height="34.5" as="geometry" />
        </mxCell>
        <mxCell id="OC5nSUmwgI4mCA2y0-B8-13" value="" style="shape=image;imageAspect=0;aspect=fixed;verticalLabelPosition=bottom;verticalAlign=top;image=https://download.logo.wine/logo/Spring_Framework/Spring_Framework-Logo.wine.png;" parent="i-trvBffCiO7pJ1U6G_m-1" vertex="1">
          <mxGeometry x="78.13" y="14.75" width="104.9" height="70" as="geometry" />
        </mxCell>
        <mxCell id="dbKpntsf5GKHM6dsVqd3-4" style="edgeStyle=none;rounded=1;orthogonalLoop=1;jettySize=auto;html=1;fontSize=13;fontColor=#0066CC;startArrow=none;startFill=0;endArrow=classic;endFill=1;" parent="1" source="wUKixATfxyb9YDD8hia9-6" target="bgIms7LMxj44mg2ObQRT-59" edge="1">
          <mxGeometry relative="1" as="geometry" />
        </mxCell>
        <mxCell id="X5Q_4vSoUxfV6xFfBx6R-1" value="port:8080" style="rounded=1;whiteSpace=wrap;html=1;" parent="1" vertex="1">
          <mxGeometry x="503.25" y="555.5" width="66.75" height="25" as="geometry" />
        </mxCell>
        <mxCell id="X5Q_4vSoUxfV6xFfBx6R-2" value="port:80" style="rounded=1;whiteSpace=wrap;html=1;" parent="1" vertex="1">
          <mxGeometry x="780" y="555.5" width="66.75" height="25" as="geometry" />
        </mxCell>
        <mxCell id="X5Q_4vSoUxfV6xFfBx6R-5" value="port:8300" style="rounded=1;whiteSpace=wrap;html=1;" parent="1" vertex="1">
          <mxGeometry x="678.25" y="215.01" width="66.75" height="25" as="geometry" />
        </mxCell>
        <mxCell id="wUKixATfxyb9YDD8hia9-6" value="" style="sketch=0;pointerEvents=1;shadow=0;dashed=0;html=1;strokeColor=none;fillColor=#505050;labelPosition=center;verticalLabelPosition=bottom;verticalAlign=top;outlineConnect=0;align=center;shape=mxgraph.office.security.lock_with_key_security_green;fontSize=13;" parent="1" vertex="1">
          <mxGeometry x="964.6200000000001" y="290" width="27" height="30" as="geometry" />
        </mxCell>
        <mxCell id="wUKixATfxyb9YDD8hia9-7" value="" style="edgeStyle=none;rounded=1;orthogonalLoop=1;jettySize=auto;html=1;fontSize=13;fontColor=#0066CC;startArrow=none;startFill=0;endArrow=none;endFill=1;" parent="1" source="bgIms7LMxj44mg2ObQRT-115" target="wUKixATfxyb9YDD8hia9-6" edge="1">
          <mxGeometry relative="1" as="geometry">
            <mxPoint x="1082.741668044031" y="160.99000000000012" as="sourcePoint" />
            <mxPoint x="988.3088863178082" y="420.5" as="targetPoint" />
          </mxGeometry>
        </mxCell>
        <mxCell id="wUKixATfxyb9YDD8hia9-1" value="" style="sketch=0;pointerEvents=1;shadow=0;dashed=0;html=1;strokeColor=none;fillColor=#505050;labelPosition=center;verticalLabelPosition=bottom;verticalAlign=top;outlineConnect=0;align=center;shape=mxgraph.office.security.lock_with_key_security;rounded=0;fontSize=13;" parent="1" vertex="1">
          <mxGeometry x="693" y="485.01" width="27" height="30" as="geometry" />
        </mxCell>
        <mxCell id="wUKixATfxyb9YDD8hia9-8" value="" style="edgeStyle=none;rounded=0;orthogonalLoop=1;jettySize=auto;html=1;fontSize=13;startArrow=classic;startFill=1;endArrow=none;endFill=0;" parent="1" source="bgIms7LMxj44mg2ObQRT-59" target="wUKixATfxyb9YDD8hia9-1" edge="1">
          <mxGeometry relative="1" as="geometry">
            <mxPoint x="956.6199999999999" y="452.77812936791406" as="sourcePoint" />
            <mxPoint x="486" y="546.423396490138" as="targetPoint" />
          </mxGeometry>
        </mxCell>
        <UserObject label="" link="data:page/id,z22_3FCR5aY2KUpQdKTP" id="4wPhBWtblUmCsku5pxMr-13">
          <mxCell style="group" parent="1" vertex="1" connectable="0">
            <mxGeometry x="620" y="673" width="125" height="120.5" as="geometry" />
          </mxCell>
        </UserObject>
        <mxCell id="4wPhBWtblUmCsku5pxMr-3" value="Notification service" style="text;html=1;strokeColor=none;fillColor=none;align=center;verticalAlign=middle;whiteSpace=wrap;rounded=0;fontSize=13;" parent="4wPhBWtblUmCsku5pxMr-13" vertex="1">
          <mxGeometry y="90.5" width="125" height="30" as="geometry" />
        </mxCell>
        <mxCell id="4wPhBWtblUmCsku5pxMr-4" value="port:8900" style="rounded=1;whiteSpace=wrap;html=1;" parent="4wPhBWtblUmCsku5pxMr-13" vertex="1">
          <mxGeometry x="29.129999999999995" width="66.75" height="25" as="geometry" />
        </mxCell>
        <mxCell id="4wPhBWtblUmCsku5pxMr-11" value="" style="sketch=0;pointerEvents=1;shadow=0;dashed=0;html=1;strokeColor=none;fillColor=#505050;labelPosition=center;verticalLabelPosition=bottom;verticalAlign=top;outlineConnect=0;align=center;shape=mxgraph.office.servers.server_generic;" parent="4wPhBWtblUmCsku5pxMr-13" vertex="1">
          <mxGeometry x="49" y="38.5" width="27" height="52" as="geometry" />
        </mxCell>
        <mxCell id="OC5nSUmwgI4mCA2y0-B8-5" value="" style="shape=image;html=1;verticalAlign=top;verticalLabelPosition=bottom;labelBackgroundColor=#ffffff;imageAspect=0;aspect=fixed;image=https://cdn3.iconfinder.com/data/icons/logos-and-brands-adobe/512/267_Python-128.png" parent="4wPhBWtblUmCsku5pxMr-13" vertex="1">
          <mxGeometry x="95" y="38.5" width="25" height="25" as="geometry" />
        </mxCell>
        <mxCell id="OC5nSUmwgI4mCA2y0-B8-4" value="" style="shape=image;html=1;verticalAlign=top;verticalLabelPosition=bottom;labelBackgroundColor=#ffffff;imageAspect=0;aspect=fixed;image=https://cdn4.iconfinder.com/data/icons/logos-brands-5/24/flask-128.png" parent="4wPhBWtblUmCsku5pxMr-13" vertex="1">
          <mxGeometry x="98" y="68.5" width="22" height="22" as="geometry" />
        </mxCell>
        <mxCell id="4wPhBWtblUmCsku5pxMr-20" style="edgeStyle=none;rounded=0;orthogonalLoop=1;jettySize=auto;html=1;endArrow=classic;endFill=1;" parent="1" source="bgIms7LMxj44mg2ObQRT-45" target="4wPhBWtblUmCsku5pxMr-11" edge="1">
          <mxGeometry relative="1" as="geometry" />
        </mxCell>
        <mxCell id="4wPhBWtblUmCsku5pxMr-21" style="edgeStyle=none;rounded=0;orthogonalLoop=1;jettySize=auto;html=1;endArrow=classic;endFill=1;" parent="1" source="bgIms7LMxj44mg2ObQRT-46" target="4wPhBWtblUmCsku5pxMr-11" edge="1">
          <mxGeometry relative="1" as="geometry" />
        </mxCell>
        <mxCell id="5LgNPNKA_WWHH8S32siY-2" value="" style="group" parent="1" vertex="1" connectable="0">
          <mxGeometry x="1004.1300000000001" y="663" width="60" height="86" as="geometry" />
        </mxCell>
        <mxCell id="bgIms7LMxj44mg2ObQRT-53" value="Client" style="text;html=1;strokeColor=none;fillColor=none;align=center;verticalAlign=middle;whiteSpace=wrap;rounded=0;fontSize=13;" parent="5LgNPNKA_WWHH8S32siY-2" vertex="1">
          <mxGeometry y="56" width="60" height="30" as="geometry" />
        </mxCell>
        <mxCell id="bgIms7LMxj44mg2ObQRT-52" value="" style="sketch=0;pointerEvents=1;shadow=0;dashed=0;html=1;strokeColor=none;fillColor=#505050;labelPosition=center;verticalLabelPosition=bottom;verticalAlign=top;outlineConnect=0;align=center;shape=mxgraph.office.users.mobile_user;rounded=0;fontSize=13;" parent="5LgNPNKA_WWHH8S32siY-2" vertex="1">
          <mxGeometry width="59" height="56" as="geometry" />
        </mxCell>
        <mxCell id="bgIms7LMxj44mg2ObQRT-67" value="Session service" style="text;html=1;strokeColor=none;fillColor=none;align=center;verticalAlign=middle;whiteSpace=wrap;rounded=0;fontSize=13;" parent="1" vertex="1">
          <mxGeometry x="855.37" y="392" width="136.25" height="30" as="geometry" />
        </mxCell>
        <mxCell id="lBF2nb8I3C5L1KCo6nck-8" style="edgeStyle=orthogonalEdgeStyle;rounded=0;orthogonalLoop=1;jettySize=auto;html=1;sketch=0;" parent="1" source="lBF2nb8I3C5L1KCo6nck-2" target="lBF2nb8I3C5L1KCo6nck-4" edge="1">
          <mxGeometry relative="1" as="geometry" />
        </mxCell>
        <mxCell id="lBF2nb8I3C5L1KCo6nck-9" style="edgeStyle=orthogonalEdgeStyle;rounded=0;orthogonalLoop=1;jettySize=auto;html=1;sketch=0;" parent="1" source="lBF2nb8I3C5L1KCo6nck-4" target="lBF2nb8I3C5L1KCo6nck-6" edge="1">
          <mxGeometry relative="1" as="geometry">
            <Array as="points">
              <mxPoint x="80" y="600" />
            </Array>
          </mxGeometry>
        </mxCell>
        <mxCell id="lBF2nb8I3C5L1KCo6nck-10" style="edgeStyle=orthogonalEdgeStyle;rounded=0;orthogonalLoop=1;jettySize=auto;html=1;sketch=0;" parent="1" source="lBF2nb8I3C5L1KCo6nck-4" edge="1">
          <mxGeometry relative="1" as="geometry">
            <mxPoint x="220" y="544" as="targetPoint" />
          </mxGeometry>
        </mxCell>
        <mxCell id="lBF2nb8I3C5L1KCo6nck-4" value="" style="shape=image;html=1;verticalAlign=top;verticalLabelPosition=bottom;labelBackgroundColor=#ffffff;imageAspect=0;aspect=fixed;image=https://cdn1.iconfinder.com/data/icons/picons-social/57/github_rounded-128.png;sketch=0;" parent="1" vertex="1">
          <mxGeometry x="134" y="572.5" width="58" height="58" as="geometry" />
        </mxCell>
        <mxCell id="lBF2nb8I3C5L1KCo6nck-12" style="edgeStyle=orthogonalEdgeStyle;rounded=0;orthogonalLoop=1;jettySize=auto;html=1;sketch=0;" parent="1" source="lBF2nb8I3C5L1KCo6nck-5" target="lBF2nb8I3C5L1KCo6nck-7" edge="1">
          <mxGeometry relative="1" as="geometry">
            <mxPoint x="237.0588235294117" y="489.9000000000001" as="sourcePoint" />
            <Array as="points">
              <mxPoint x="220" y="371" />
            </Array>
          </mxGeometry>
        </mxCell>
        <mxCell id="lBF2nb8I3C5L1KCo6nck-5" value="" style="shape=image;imageAspect=0;aspect=fixed;verticalLabelPosition=bottom;verticalAlign=top;image=https://avatars1.githubusercontent.com/u/65916846?v=4;sketch=0;" parent="1" vertex="1">
          <mxGeometry x="193" y="485.01" width="54.24" height="54.24" as="geometry" />
        </mxCell>
        <mxCell id="lBF2nb8I3C5L1KCo6nck-11" style="edgeStyle=orthogonalEdgeStyle;rounded=0;orthogonalLoop=1;jettySize=auto;html=1;sketch=0;" parent="1" source="lBF2nb8I3C5L1KCo6nck-6" target="lBF2nb8I3C5L1KCo6nck-7" edge="1">
          <mxGeometry relative="1" as="geometry">
            <Array as="points">
              <mxPoint x="80" y="371" />
            </Array>
          </mxGeometry>
        </mxCell>
        <mxCell id="lBF2nb8I3C5L1KCo6nck-6" value="" style="shape=image;imageAspect=0;aspect=fixed;verticalLabelPosition=bottom;verticalAlign=top;image=https://upload.wikimedia.org/wikipedia/commons/thumb/e/e3/Jenkins_logo_with_title.svg/2560px-Jenkins_logo_with_title.svg.png;sketch=0;" parent="1" vertex="1">
          <mxGeometry x="30" y="493.13" width="118.29" height="37.99" as="geometry" />
        </mxCell>
        <mxCell id="lBF2nb8I3C5L1KCo6nck-7" value="" style="sketch=0;pointerEvents=1;shadow=0;dashed=0;html=1;strokeColor=none;fillColor=#505050;labelPosition=center;verticalLabelPosition=bottom;verticalAlign=top;outlineConnect=0;align=center;shape=mxgraph.office.servers.mainframe;" parent="1" vertex="1">
          <mxGeometry x="128.29" y="350" width="58" height="42" as="geometry" />
        </mxCell>
        <mxCell id="5lucOLhEtisHLsJaaXl3-2" value="" style="group" parent="1" vertex="1" connectable="0">
          <mxGeometry x="133" y="717" width="60" height="89" as="geometry" />
        </mxCell>
        <mxCell id="lBF2nb8I3C5L1KCo6nck-2" value="" style="sketch=0;pointerEvents=1;shadow=0;dashed=0;html=1;strokeColor=none;fillColor=#505050;labelPosition=center;verticalLabelPosition=bottom;verticalAlign=top;outlineConnect=0;align=center;shape=mxgraph.office.users.writer;" parent="5lucOLhEtisHLsJaaXl3-2" vertex="1">
          <mxGeometry x="3" width="54" height="59" as="geometry" />
        </mxCell>
        <mxCell id="5lucOLhEtisHLsJaaXl3-1" value="Developer" style="text;html=1;strokeColor=none;fillColor=none;align=center;verticalAlign=middle;whiteSpace=wrap;rounded=0;fontSize=13;" parent="5lucOLhEtisHLsJaaXl3-2" vertex="1">
          <mxGeometry y="53" width="60" height="30" as="geometry" />
        </mxCell>
        <mxCell id="5lucOLhEtisHLsJaaXl3-6" value="" style="group" parent="1" vertex="1" connectable="0">
          <mxGeometry x="910.0000000000002" y="59.99961894323343" width="126.7405080756887" height="167.99038105676658" as="geometry" />
        </mxCell>
        <UserObject label="" link="data:page/id,jsqfzauZG5fFLpYY1AMA" id="bgIms7LMxj44mg2ObQRT-116">
          <mxCell style="group" parent="5lucOLhEtisHLsJaaXl3-6" vertex="1" connectable="0">
            <mxGeometry x="18.719197797680636" width="108.02131027800799" height="127.99038105676658" as="geometry" />
          </mxCell>
        </UserObject>
        <mxCell id="IEh56CBGGqZC5MKg6xBd-1" value="" style="group" parent="bgIms7LMxj44mg2ObQRT-116" vertex="1" connectable="0">
          <mxGeometry x="3.197442310920451e-14" width="108.02131027800796" height="127.99038105676658" as="geometry" />
        </mxCell>
        <mxCell id="dbKpntsf5GKHM6dsVqd3-2" value="" style="group" parent="IEh56CBGGqZC5MKg6xBd-1" vertex="1" connectable="0">
          <mxGeometry width="108.02131027800796" height="127.99038105676658" as="geometry" />
        </mxCell>
        <mxCell id="bgIms7LMxj44mg2ObQRT-109" value="" style="fontColor=#0066CC;verticalAlign=top;verticalLabelPosition=bottom;labelPosition=center;align=center;html=1;outlineConnect=0;fillColor=#CCCCCC;strokeColor=#6881B3;gradientColor=none;gradientDirection=north;strokeWidth=2;shape=mxgraph.networks.gamepad;rounded=0;fontSize=13;rotation=-15;" parent="dbKpntsf5GKHM6dsVqd3-2" vertex="1">
          <mxGeometry x="3.200802202319178" y="27.99038105676658" width="40" height="30" as="geometry" />
        </mxCell>
        <mxCell id="bgIms7LMxj44mg2ObQRT-112" value="" style="fontColor=#0066CC;verticalAlign=top;verticalLabelPosition=bottom;labelPosition=center;align=center;html=1;outlineConnect=0;fillColor=#CCCCCC;strokeColor=#6881B3;gradientColor=none;gradientDirection=north;strokeWidth=2;shape=mxgraph.networks.pc;rounded=0;fontSize=13;" parent="dbKpntsf5GKHM6dsVqd3-2" vertex="1">
          <mxGeometry x="53.20080220231918" y="47.99038105676658" width="50" height="40" as="geometry" />
        </mxCell>
        <mxCell id="bgIms7LMxj44mg2ObQRT-113" value="" style="fontColor=#0066CC;verticalAlign=top;verticalLabelPosition=bottom;labelPosition=center;align=center;html=1;outlineConnect=0;fillColor=#CCCCCC;strokeColor=#6881B3;gradientColor=none;gradientDirection=north;strokeWidth=2;shape=mxgraph.networks.gamepad;rounded=0;fontSize=13;rotation=30;" parent="dbKpntsf5GKHM6dsVqd3-2" vertex="1">
          <mxGeometry x="63.20080220231918" y="7.99038105676658" width="40" height="30" as="geometry" />
        </mxCell>
        <mxCell id="bgIms7LMxj44mg2ObQRT-115" value="Instances" style="text;html=1;strokeColor=none;fillColor=none;align=center;verticalAlign=middle;whiteSpace=wrap;rounded=0;fontSize=13;" parent="dbKpntsf5GKHM6dsVqd3-2" vertex="1">
          <mxGeometry x="13.200802202319178" y="97.99038105676658" width="70" height="30" as="geometry" />
        </mxCell>
        <mxCell id="lBF2nb8I3C5L1KCo6nck-1" value="" style="shape=image;imageAspect=0;aspect=fixed;verticalLabelPosition=bottom;verticalAlign=top;image=https://seeklogo.com/images/C/c-sharp-c-logo-02F17714BA-seeklogo.com.png;" parent="5lucOLhEtisHLsJaaXl3-6" vertex="1">
          <mxGeometry y="127.99038105676658" width="35.6" height="40" as="geometry" />
        </mxCell>
        <UserObject label="" link="data:page/id,0rcRp-Ez7_2eqPoOjJS7" id="5lucOLhEtisHLsJaaXl3-5">
          <mxCell style="group" parent="1" vertex="1" connectable="0">
            <mxGeometry x="740" y="44.99000000000001" width="125" height="103" as="geometry" />
          </mxCell>
        </UserObject>
        <mxCell id="5lucOLhEtisHLsJaaXl3-8" value="" style="group" parent="5lucOLhEtisHLsJaaXl3-5" vertex="1" connectable="0">
          <mxGeometry x="-2.5" y="5" width="125" height="93" as="geometry" />
        </mxCell>
        <mxCell id="5lucOLhEtisHLsJaaXl3-10" value="" style="group" parent="5lucOLhEtisHLsJaaXl3-8" vertex="1" connectable="0">
          <mxGeometry width="125" height="93" as="geometry" />
        </mxCell>
        <mxCell id="xEwaaw7y9QP_PT1mOGoU-1" value="" style="sketch=0;pointerEvents=1;shadow=0;dashed=0;html=1;strokeColor=none;fillColor=#505050;labelPosition=center;verticalLabelPosition=bottom;verticalAlign=top;outlineConnect=0;align=center;shape=mxgraph.office.servers.certificate_authority;fontSize=13;" parent="5lucOLhEtisHLsJaaXl3-10" vertex="1">
          <mxGeometry x="20" y="34" width="46" height="59" as="geometry" />
        </mxCell>
        <mxCell id="xEwaaw7y9QP_PT1mOGoU-3" value="port:8100" style="rounded=1;whiteSpace=wrap;html=1;" parent="5lucOLhEtisHLsJaaXl3-10" vertex="1">
          <mxGeometry x="50" y="34" width="66.75" height="25" as="geometry" />
        </mxCell>
        <mxCell id="xEwaaw7y9QP_PT1mOGoU-4" value="Credential service" style="text;html=1;strokeColor=none;fillColor=none;align=center;verticalAlign=middle;whiteSpace=wrap;rounded=0;fontSize=13;" parent="5lucOLhEtisHLsJaaXl3-10" vertex="1">
          <mxGeometry width="125" height="30" as="geometry" />
        </mxCell>
      </root>
    </mxGraphModel>
  </diagram>
  <diagram id="RBX-khUak4_ubRidFVQT" name="Device service">
    <mxGraphModel dx="1191" dy="713" grid="1" gridSize="10" guides="1" tooltips="1" connect="1" arrows="1" fold="1" page="1" pageScale="1" pageWidth="1169" pageHeight="827" math="0" shadow="0">
      <root>
        <mxCell id="_UUj0PnGwrhtZNTvFV52-0" />
        <mxCell id="_UUj0PnGwrhtZNTvFV52-1" parent="_UUj0PnGwrhtZNTvFV52-0" />
        <mxCell id="XJXbkS5cyhszQwbjgAkD-2" value="" style="group" parent="_UUj0PnGwrhtZNTvFV52-1" vertex="1" connectable="0">
          <mxGeometry x="10" y="190" width="60" height="100" as="geometry" />
        </mxCell>
        <mxCell id="hcgZa9_8ygzGzkx22YIH-127" value="" style="group" parent="XJXbkS5cyhszQwbjgAkD-2" vertex="1" connectable="0">
          <mxGeometry width="60" height="100" as="geometry" />
        </mxCell>
        <mxCell id="XJXbkS5cyhszQwbjgAkD-0" value="" style="sketch=0;shadow=0;dashed=0;html=1;strokeColor=none;fillColor=#505050;labelPosition=center;verticalLabelPosition=bottom;verticalAlign=top;outlineConnect=0;align=center;shape=mxgraph.office.databases.database_mini_3;rounded=0;fontSize=13;fontColor=#0066CC;" parent="hcgZa9_8ygzGzkx22YIH-127" vertex="1">
          <mxGeometry x="12.5" width="35" height="57" as="geometry" />
        </mxCell>
        <mxCell id="XJXbkS5cyhszQwbjgAkD-1" value="Games" style="text;html=1;strokeColor=none;fillColor=none;align=center;verticalAlign=middle;whiteSpace=wrap;rounded=0;fontSize=13;fontColor=#000000;" parent="hcgZa9_8ygzGzkx22YIH-127" vertex="1">
          <mxGeometry y="70" width="60" height="30" as="geometry" />
        </mxCell>
        <mxCell id="XJXbkS5cyhszQwbjgAkD-3" value="" style="group" parent="_UUj0PnGwrhtZNTvFV52-1" vertex="1" connectable="0">
          <mxGeometry x="220" y="10" width="60" height="100" as="geometry" />
        </mxCell>
        <mxCell id="XJXbkS5cyhszQwbjgAkD-4" value="" style="sketch=0;shadow=0;dashed=0;html=1;strokeColor=none;fillColor=#505050;labelPosition=center;verticalLabelPosition=bottom;verticalAlign=top;outlineConnect=0;align=center;shape=mxgraph.office.databases.database_mini_3;rounded=0;fontSize=13;fontColor=#0066CC;" parent="XJXbkS5cyhszQwbjgAkD-3" vertex="1">
          <mxGeometry x="12.5" width="35" height="57" as="geometry" />
        </mxCell>
        <mxCell id="XJXbkS5cyhszQwbjgAkD-5" value="Devices" style="text;html=1;strokeColor=none;fillColor=none;align=center;verticalAlign=middle;whiteSpace=wrap;rounded=0;fontSize=13;fontColor=#000000;" parent="XJXbkS5cyhszQwbjgAkD-3" vertex="1">
          <mxGeometry y="70" width="60" height="30" as="geometry" />
        </mxCell>
        <mxCell id="XJXbkS5cyhszQwbjgAkD-6" value="" style="group" parent="_UUj0PnGwrhtZNTvFV52-1" vertex="1" connectable="0">
          <mxGeometry x="415" y="190" width="60" height="100" as="geometry" />
        </mxCell>
        <mxCell id="hcgZa9_8ygzGzkx22YIH-128" value="" style="group" parent="XJXbkS5cyhszQwbjgAkD-6" vertex="1" connectable="0">
          <mxGeometry width="60" height="100" as="geometry" />
        </mxCell>
        <mxCell id="XJXbkS5cyhszQwbjgAkD-7" value="" style="sketch=0;shadow=0;dashed=0;html=1;strokeColor=none;fillColor=#505050;labelPosition=center;verticalLabelPosition=bottom;verticalAlign=top;outlineConnect=0;align=center;shape=mxgraph.office.databases.database_mini_3;rounded=0;fontSize=13;fontColor=#0066CC;" parent="hcgZa9_8ygzGzkx22YIH-128" vertex="1">
          <mxGeometry x="12.5" width="35" height="57" as="geometry" />
        </mxCell>
        <mxCell id="XJXbkS5cyhszQwbjgAkD-8" value="Instances" style="text;html=1;strokeColor=none;fillColor=none;align=center;verticalAlign=middle;whiteSpace=wrap;rounded=0;fontSize=13;fontColor=#000000;" parent="hcgZa9_8ygzGzkx22YIH-128" vertex="1">
          <mxGeometry y="70" width="60" height="30" as="geometry" />
        </mxCell>
        <mxCell id="XJXbkS5cyhszQwbjgAkD-9" style="edgeStyle=none;rounded=1;orthogonalLoop=1;jettySize=auto;html=1;fontSize=13;fontColor=#000000;startArrow=classic;startFill=1;endArrow=classic;endFill=1;strokeColor=#000000;" parent="_UUj0PnGwrhtZNTvFV52-1" source="XJXbkS5cyhszQwbjgAkD-0" target="XJXbkS5cyhszQwbjgAkD-4" edge="1">
          <mxGeometry relative="1" as="geometry" />
        </mxCell>
        <mxCell id="XJXbkS5cyhszQwbjgAkD-10" value="Many To Many" style="rounded=1;whiteSpace=wrap;html=1;fontSize=13;strokeWidth=1;gradientDirection=north;verticalAlign=top;" parent="_UUj0PnGwrhtZNTvFV52-1" vertex="1">
          <mxGeometry x="80" y="120" width="110" height="30" as="geometry" />
        </mxCell>
        <mxCell id="XJXbkS5cyhszQwbjgAkD-11" style="edgeStyle=none;rounded=1;orthogonalLoop=1;jettySize=auto;html=1;fontSize=13;fontColor=#000000;startArrow=classic;startFill=1;endArrow=none;endFill=0;strokeColor=#000000;" parent="_UUj0PnGwrhtZNTvFV52-1" source="XJXbkS5cyhszQwbjgAkD-7" target="XJXbkS5cyhszQwbjgAkD-4" edge="1">
          <mxGeometry relative="1" as="geometry" />
        </mxCell>
        <mxCell id="hcgZa9_8ygzGzkx22YIH-0" value="games" style="swimlane;fontStyle=0;childLayout=stackLayout;horizontal=1;startSize=26;fillColor=#e0e0e0;horizontalStack=0;resizeParent=1;resizeLast=0;collapsible=1;marginBottom=0;swimlaneFillColor=#ffffff;align=center;" parent="_UUj0PnGwrhtZNTvFV52-1" vertex="1">
          <mxGeometry x="40" y="560" width="210" height="260" as="geometry">
            <mxRectangle x="40" y="560" width="70" height="26" as="alternateBounds" />
          </mxGeometry>
        </mxCell>
        <mxCell id="hcgZa9_8ygzGzkx22YIH-1" value="id" style="shape=partialRectangle;top=0;left=0;right=0;bottom=0;align=left;verticalAlign=top;spacingTop=-2;fillColor=none;spacingLeft=64;spacingRight=4;overflow=hidden;rotatable=0;points=[[0,0.5],[1,0.5]];portConstraint=eastwest;dropTarget=0;" parent="hcgZa9_8ygzGzkx22YIH-0" vertex="1">
          <mxGeometry y="26" width="210" height="26" as="geometry" />
        </mxCell>
        <mxCell id="hcgZa9_8ygzGzkx22YIH-2" value="" style="shape=partialRectangle;top=0;left=0;bottom=0;fillColor=none;align=left;verticalAlign=middle;spacingLeft=4;spacingRight=4;overflow=hidden;rotatable=180;points=[];portConstraint=eastwest;part=1;" parent="hcgZa9_8ygzGzkx22YIH-1" vertex="1" connectable="0">
          <mxGeometry width="54" height="26" as="geometry" />
        </mxCell>
        <mxCell id="hcgZa9_8ygzGzkx22YIH-3" value="name" style="shape=partialRectangle;top=0;left=0;right=0;bottom=0;align=left;verticalAlign=top;spacingTop=-2;fillColor=none;spacingLeft=64;spacingRight=4;overflow=hidden;rotatable=0;points=[[0,0.5],[1,0.5]];portConstraint=eastwest;dropTarget=0;" parent="hcgZa9_8ygzGzkx22YIH-0" vertex="1">
          <mxGeometry y="52" width="210" height="26" as="geometry" />
        </mxCell>
        <mxCell id="hcgZa9_8ygzGzkx22YIH-4" value="" style="shape=partialRectangle;top=0;left=0;bottom=0;fillColor=none;align=left;verticalAlign=middle;spacingLeft=4;spacingRight=4;overflow=hidden;rotatable=180;points=[];portConstraint=eastwest;part=1;" parent="hcgZa9_8ygzGzkx22YIH-3" vertex="1" connectable="0">
          <mxGeometry width="54" height="26" as="geometry" />
        </mxCell>
        <mxCell id="hcgZa9_8ygzGzkx22YIH-5" value="slug" style="shape=partialRectangle;top=0;left=0;right=0;bottom=0;align=left;verticalAlign=top;spacingTop=-2;fillColor=none;spacingLeft=64;spacingRight=4;overflow=hidden;rotatable=0;points=[[0,0.5],[1,0.5]];portConstraint=eastwest;dropTarget=0;" parent="hcgZa9_8ygzGzkx22YIH-0" vertex="1">
          <mxGeometry y="78" width="210" height="26" as="geometry" />
        </mxCell>
        <mxCell id="hcgZa9_8ygzGzkx22YIH-6" value="" style="shape=partialRectangle;top=0;left=0;bottom=0;fillColor=none;align=left;verticalAlign=middle;spacingLeft=4;spacingRight=4;overflow=hidden;rotatable=180;points=[];portConstraint=eastwest;part=1;" parent="hcgZa9_8ygzGzkx22YIH-5" vertex="1" connectable="0">
          <mxGeometry width="54" height="26" as="geometry" />
        </mxCell>
        <mxCell id="hcgZa9_8ygzGzkx22YIH-7" value="video" style="shape=partialRectangle;top=0;left=0;right=0;bottom=0;align=left;verticalAlign=top;spacingTop=-2;fillColor=none;spacingLeft=64;spacingRight=4;overflow=hidden;rotatable=0;points=[[0,0.5],[1,0.5]];portConstraint=eastwest;dropTarget=0;" parent="hcgZa9_8ygzGzkx22YIH-0" vertex="1">
          <mxGeometry y="104" width="210" height="26" as="geometry" />
        </mxCell>
        <mxCell id="hcgZa9_8ygzGzkx22YIH-8" value="" style="shape=partialRectangle;top=0;left=0;bottom=0;fillColor=none;align=left;verticalAlign=middle;spacingLeft=4;spacingRight=4;overflow=hidden;rotatable=180;points=[];portConstraint=eastwest;part=1;" parent="hcgZa9_8ygzGzkx22YIH-7" vertex="1" connectable="0">
          <mxGeometry width="54" height="26" as="geometry" />
        </mxCell>
        <mxCell id="hcgZa9_8ygzGzkx22YIH-9" value="description" style="shape=partialRectangle;top=0;left=0;right=0;bottom=0;align=left;verticalAlign=top;spacingTop=-2;fillColor=none;spacingLeft=64;spacingRight=4;overflow=hidden;rotatable=0;points=[[0,0.5],[1,0.5]];portConstraint=eastwest;dropTarget=0;" parent="hcgZa9_8ygzGzkx22YIH-0" vertex="1">
          <mxGeometry y="130" width="210" height="26" as="geometry" />
        </mxCell>
        <mxCell id="hcgZa9_8ygzGzkx22YIH-10" value="" style="shape=partialRectangle;top=0;left=0;bottom=0;fillColor=none;align=left;verticalAlign=middle;spacingLeft=4;spacingRight=4;overflow=hidden;rotatable=180;points=[];portConstraint=eastwest;part=1;" parent="hcgZa9_8ygzGzkx22YIH-9" vertex="1" connectable="0">
          <mxGeometry width="54" height="26" as="geometry" />
        </mxCell>
        <mxCell id="hcgZa9_8ygzGzkx22YIH-11" value="rating" style="shape=partialRectangle;top=0;left=0;right=0;bottom=0;align=left;verticalAlign=top;spacingTop=-2;fillColor=none;spacingLeft=64;spacingRight=4;overflow=hidden;rotatable=0;points=[[0,0.5],[1,0.5]];portConstraint=eastwest;dropTarget=0;" parent="hcgZa9_8ygzGzkx22YIH-0" vertex="1">
          <mxGeometry y="156" width="210" height="26" as="geometry" />
        </mxCell>
        <mxCell id="hcgZa9_8ygzGzkx22YIH-12" value="" style="shape=partialRectangle;top=0;left=0;bottom=0;fillColor=none;align=left;verticalAlign=middle;spacingLeft=4;spacingRight=4;overflow=hidden;rotatable=180;points=[];portConstraint=eastwest;part=1;" parent="hcgZa9_8ygzGzkx22YIH-11" vertex="1" connectable="0">
          <mxGeometry width="54" height="26" as="geometry" />
        </mxCell>
        <mxCell id="hcgZa9_8ygzGzkx22YIH-13" value="multiplayer" style="shape=partialRectangle;top=0;left=0;right=0;bottom=0;align=left;verticalAlign=top;spacingTop=-2;fillColor=none;spacingLeft=64;spacingRight=4;overflow=hidden;rotatable=0;points=[[0,0.5],[1,0.5]];portConstraint=eastwest;dropTarget=0;" parent="hcgZa9_8ygzGzkx22YIH-0" vertex="1">
          <mxGeometry y="182" width="210" height="26" as="geometry" />
        </mxCell>
        <mxCell id="hcgZa9_8ygzGzkx22YIH-14" value="" style="shape=partialRectangle;top=0;left=0;bottom=0;fillColor=none;align=left;verticalAlign=middle;spacingLeft=4;spacingRight=4;overflow=hidden;rotatable=180;points=[];portConstraint=eastwest;part=1;" parent="hcgZa9_8ygzGzkx22YIH-13" vertex="1" connectable="0">
          <mxGeometry width="54" height="26" as="geometry" />
        </mxCell>
        <mxCell id="hcgZa9_8ygzGzkx22YIH-15" value="created_at" style="shape=partialRectangle;top=0;left=0;right=0;bottom=0;align=left;verticalAlign=top;spacingTop=-2;fillColor=none;spacingLeft=64;spacingRight=4;overflow=hidden;rotatable=0;points=[[0,0.5],[1,0.5]];portConstraint=eastwest;dropTarget=0;" parent="hcgZa9_8ygzGzkx22YIH-0" vertex="1">
          <mxGeometry y="208" width="210" height="26" as="geometry" />
        </mxCell>
        <mxCell id="hcgZa9_8ygzGzkx22YIH-16" value="" style="shape=partialRectangle;top=0;left=0;bottom=0;fillColor=none;align=left;verticalAlign=middle;spacingLeft=4;spacingRight=4;overflow=hidden;rotatable=180;points=[];portConstraint=eastwest;part=1;" parent="hcgZa9_8ygzGzkx22YIH-15" vertex="1" connectable="0">
          <mxGeometry width="54" height="26" as="geometry" />
        </mxCell>
        <mxCell id="hcgZa9_8ygzGzkx22YIH-17" value="updated_at" style="shape=partialRectangle;top=0;left=0;right=0;bottom=0;align=left;verticalAlign=top;spacingTop=-2;fillColor=none;spacingLeft=64;spacingRight=4;overflow=hidden;rotatable=0;points=[[0,0.5],[1,0.5]];portConstraint=eastwest;dropTarget=0;" parent="hcgZa9_8ygzGzkx22YIH-0" vertex="1">
          <mxGeometry y="234" width="210" height="26" as="geometry" />
        </mxCell>
        <mxCell id="hcgZa9_8ygzGzkx22YIH-18" value="" style="shape=partialRectangle;top=0;left=0;bottom=0;fillColor=none;align=left;verticalAlign=middle;spacingLeft=4;spacingRight=4;overflow=hidden;rotatable=180;points=[];portConstraint=eastwest;part=1;" parent="hcgZa9_8ygzGzkx22YIH-17" vertex="1" connectable="0">
          <mxGeometry width="54" height="26" as="geometry" />
        </mxCell>
        <mxCell id="hcgZa9_8ygzGzkx22YIH-56" value="devices" style="swimlane;fontStyle=0;childLayout=stackLayout;horizontal=1;startSize=26;fillColor=#e0e0e0;horizontalStack=0;resizeParent=1;resizeLast=0;collapsible=1;marginBottom=0;swimlaneFillColor=#ffffff;align=center;" parent="_UUj0PnGwrhtZNTvFV52-1" vertex="1">
          <mxGeometry x="600" y="560" width="150" height="130" as="geometry">
            <mxRectangle x="600" y="560" width="70" height="26" as="alternateBounds" />
          </mxGeometry>
        </mxCell>
        <mxCell id="hcgZa9_8ygzGzkx22YIH-57" value="id" style="shape=partialRectangle;top=0;left=0;right=0;bottom=0;align=left;verticalAlign=top;spacingTop=-2;fillColor=none;spacingLeft=64;spacingRight=4;overflow=hidden;rotatable=0;points=[[0,0.5],[1,0.5]];portConstraint=eastwest;dropTarget=0;" parent="hcgZa9_8ygzGzkx22YIH-56" vertex="1">
          <mxGeometry y="26" width="150" height="26" as="geometry" />
        </mxCell>
        <mxCell id="hcgZa9_8ygzGzkx22YIH-58" value="" style="shape=partialRectangle;top=0;left=0;bottom=0;fillColor=none;align=left;verticalAlign=middle;spacingLeft=4;spacingRight=4;overflow=hidden;rotatable=180;points=[];portConstraint=eastwest;part=1;" parent="hcgZa9_8ygzGzkx22YIH-57" vertex="1" connectable="0">
          <mxGeometry width="54" height="26" as="geometry" />
        </mxCell>
        <mxCell id="hcgZa9_8ygzGzkx22YIH-59" value="name" style="shape=partialRectangle;top=0;left=0;right=0;bottom=0;align=left;verticalAlign=top;spacingTop=-2;fillColor=none;spacingLeft=64;spacingRight=4;overflow=hidden;rotatable=0;points=[[0,0.5],[1,0.5]];portConstraint=eastwest;dropTarget=0;" parent="hcgZa9_8ygzGzkx22YIH-56" vertex="1">
          <mxGeometry y="52" width="150" height="26" as="geometry" />
        </mxCell>
        <mxCell id="hcgZa9_8ygzGzkx22YIH-60" value="" style="shape=partialRectangle;top=0;left=0;bottom=0;fillColor=none;align=left;verticalAlign=middle;spacingLeft=4;spacingRight=4;overflow=hidden;rotatable=180;points=[];portConstraint=eastwest;part=1;" parent="hcgZa9_8ygzGzkx22YIH-59" vertex="1" connectable="0">
          <mxGeometry width="54" height="26" as="geometry" />
        </mxCell>
        <mxCell id="hcgZa9_8ygzGzkx22YIH-61" value="slug" style="shape=partialRectangle;top=0;left=0;right=0;bottom=0;align=left;verticalAlign=top;spacingTop=-2;fillColor=none;spacingLeft=64;spacingRight=4;overflow=hidden;rotatable=0;points=[[0,0.5],[1,0.5]];portConstraint=eastwest;dropTarget=0;" parent="hcgZa9_8ygzGzkx22YIH-56" vertex="1">
          <mxGeometry y="78" width="150" height="26" as="geometry" />
        </mxCell>
        <mxCell id="hcgZa9_8ygzGzkx22YIH-62" value="" style="shape=partialRectangle;top=0;left=0;bottom=0;fillColor=none;align=left;verticalAlign=middle;spacingLeft=4;spacingRight=4;overflow=hidden;rotatable=180;points=[];portConstraint=eastwest;part=1;" parent="hcgZa9_8ygzGzkx22YIH-61" vertex="1" connectable="0">
          <mxGeometry width="54" height="26" as="geometry" />
        </mxCell>
        <mxCell id="hcgZa9_8ygzGzkx22YIH-63" value="description" style="shape=partialRectangle;top=0;left=0;right=0;bottom=0;align=left;verticalAlign=top;spacingTop=-2;fillColor=none;spacingLeft=64;spacingRight=4;overflow=hidden;rotatable=0;points=[[0,0.5],[1,0.5]];portConstraint=eastwest;dropTarget=0;" parent="hcgZa9_8ygzGzkx22YIH-56" vertex="1">
          <mxGeometry y="104" width="150" height="26" as="geometry" />
        </mxCell>
        <mxCell id="hcgZa9_8ygzGzkx22YIH-64" value="" style="shape=partialRectangle;top=0;left=0;bottom=0;fillColor=none;align=left;verticalAlign=middle;spacingLeft=4;spacingRight=4;overflow=hidden;rotatable=180;points=[];portConstraint=eastwest;part=1;" parent="hcgZa9_8ygzGzkx22YIH-63" vertex="1" connectable="0">
          <mxGeometry width="54" height="26" as="geometry" />
        </mxCell>
        <mxCell id="hcgZa9_8ygzGzkx22YIH-69" value="genres" style="swimlane;fontStyle=0;childLayout=stackLayout;horizontal=1;startSize=26;fillColor=#e0e0e0;horizontalStack=0;resizeParent=1;resizeLast=0;collapsible=1;marginBottom=0;swimlaneFillColor=default;align=center;" parent="_UUj0PnGwrhtZNTvFV52-1" vertex="1">
          <mxGeometry x="600" y="360" width="150" height="78" as="geometry">
            <mxRectangle x="600" y="360" width="70" height="26" as="alternateBounds" />
          </mxGeometry>
        </mxCell>
        <mxCell id="hcgZa9_8ygzGzkx22YIH-70" value="id" style="shape=partialRectangle;top=0;left=0;right=0;bottom=0;align=left;verticalAlign=top;spacingTop=-2;fillColor=none;spacingLeft=64;spacingRight=4;overflow=hidden;rotatable=0;points=[[0,0.5],[1,0.5]];portConstraint=eastwest;dropTarget=0;" parent="hcgZa9_8ygzGzkx22YIH-69" vertex="1">
          <mxGeometry y="26" width="150" height="26" as="geometry" />
        </mxCell>
        <mxCell id="hcgZa9_8ygzGzkx22YIH-71" value="" style="shape=partialRectangle;top=0;left=0;bottom=0;fillColor=none;align=left;verticalAlign=middle;spacingLeft=4;spacingRight=4;overflow=hidden;rotatable=180;points=[];portConstraint=eastwest;part=1;" parent="hcgZa9_8ygzGzkx22YIH-70" vertex="1" connectable="0">
          <mxGeometry width="54" height="26" as="geometry" />
        </mxCell>
        <mxCell id="hcgZa9_8ygzGzkx22YIH-72" value="name" style="shape=partialRectangle;top=0;left=0;right=0;bottom=0;align=left;verticalAlign=top;spacingTop=-2;fillColor=none;spacingLeft=64;spacingRight=4;overflow=hidden;rotatable=0;points=[[0,0.5],[1,0.5]];portConstraint=eastwest;dropTarget=0;" parent="hcgZa9_8ygzGzkx22YIH-69" vertex="1">
          <mxGeometry y="52" width="150" height="26" as="geometry" />
        </mxCell>
        <mxCell id="hcgZa9_8ygzGzkx22YIH-73" value="" style="shape=partialRectangle;top=0;left=0;bottom=0;fillColor=none;align=left;verticalAlign=middle;spacingLeft=4;spacingRight=4;overflow=hidden;rotatable=180;points=[];portConstraint=eastwest;part=1;" parent="hcgZa9_8ygzGzkx22YIH-72" vertex="1" connectable="0">
          <mxGeometry width="54" height="26" as="geometry" />
        </mxCell>
        <mxCell id="hcgZa9_8ygzGzkx22YIH-82" value="" style="group" parent="_UUj0PnGwrhtZNTvFV52-1" vertex="1" connectable="0">
          <mxGeometry x="220" y="190" width="60" height="100" as="geometry" />
        </mxCell>
        <mxCell id="hcgZa9_8ygzGzkx22YIH-83" value="" style="sketch=0;shadow=0;dashed=0;html=1;strokeColor=none;fillColor=#505050;labelPosition=center;verticalLabelPosition=bottom;verticalAlign=top;outlineConnect=0;align=center;shape=mxgraph.office.databases.database_mini_3;rounded=0;fontSize=13;fontColor=#0066CC;" parent="hcgZa9_8ygzGzkx22YIH-82" vertex="1">
          <mxGeometry x="12.5" width="35" height="57" as="geometry" />
        </mxCell>
        <mxCell id="hcgZa9_8ygzGzkx22YIH-84" value="Genres" style="text;html=1;strokeColor=none;fillColor=none;align=center;verticalAlign=middle;whiteSpace=wrap;rounded=0;fontSize=13;fontColor=#000000;" parent="hcgZa9_8ygzGzkx22YIH-82" vertex="1">
          <mxGeometry y="70" width="60" height="30" as="geometry" />
        </mxCell>
        <mxCell id="hcgZa9_8ygzGzkx22YIH-85" style="edgeStyle=none;rounded=1;orthogonalLoop=1;jettySize=auto;html=1;fontSize=13;fontColor=#000000;startArrow=none;startFill=0;endArrow=classic;endFill=1;strokeColor=#000000;" parent="_UUj0PnGwrhtZNTvFV52-1" source="QO6-LLWDAy3_PbgjMUUr-0" target="hcgZa9_8ygzGzkx22YIH-83" edge="1">
          <mxGeometry relative="1" as="geometry" />
        </mxCell>
        <mxCell id="hcgZa9_8ygzGzkx22YIH-86" value="device_instances" style="swimlane;fontStyle=0;childLayout=stackLayout;horizontal=1;startSize=26;fillColor=#e0e0e0;horizontalStack=0;resizeParent=1;resizeLast=0;collapsible=1;marginBottom=0;swimlaneFillColor=#ffffff;align=center;" parent="_UUj0PnGwrhtZNTvFV52-1" vertex="1">
          <mxGeometry x="840" y="560" width="170" height="156" as="geometry">
            <mxRectangle x="840" y="560" width="80" height="26" as="alternateBounds" />
          </mxGeometry>
        </mxCell>
        <mxCell id="hcgZa9_8ygzGzkx22YIH-87" value="id" style="shape=partialRectangle;top=0;left=0;right=0;bottom=0;align=left;verticalAlign=top;spacingTop=-2;fillColor=none;spacingLeft=64;spacingRight=4;overflow=hidden;rotatable=0;points=[[0,0.5],[1,0.5]];portConstraint=eastwest;dropTarget=0;" parent="hcgZa9_8ygzGzkx22YIH-86" vertex="1">
          <mxGeometry y="26" width="170" height="26" as="geometry" />
        </mxCell>
        <mxCell id="hcgZa9_8ygzGzkx22YIH-88" value="" style="shape=partialRectangle;top=0;left=0;bottom=0;fillColor=none;align=left;verticalAlign=middle;spacingLeft=4;spacingRight=4;overflow=hidden;rotatable=180;points=[];portConstraint=eastwest;part=1;" parent="hcgZa9_8ygzGzkx22YIH-87" vertex="1" connectable="0">
          <mxGeometry width="54" height="26" as="geometry" />
        </mxCell>
        <mxCell id="hcgZa9_8ygzGzkx22YIH-89" value="device_id" style="shape=partialRectangle;top=0;left=0;right=0;bottom=0;align=left;verticalAlign=top;spacingTop=-2;fillColor=none;spacingLeft=64;spacingRight=4;overflow=hidden;rotatable=0;points=[[0,0.5],[1,0.5]];portConstraint=eastwest;dropTarget=0;" parent="hcgZa9_8ygzGzkx22YIH-86" vertex="1">
          <mxGeometry y="52" width="170" height="26" as="geometry" />
        </mxCell>
        <mxCell id="hcgZa9_8ygzGzkx22YIH-90" value="" style="shape=partialRectangle;top=0;left=0;bottom=0;fillColor=none;align=left;verticalAlign=middle;spacingLeft=4;spacingRight=4;overflow=hidden;rotatable=180;points=[];portConstraint=eastwest;part=1;" parent="hcgZa9_8ygzGzkx22YIH-89" vertex="1" connectable="0">
          <mxGeometry width="54" height="26" as="geometry" />
        </mxCell>
        <mxCell id="hcgZa9_8ygzGzkx22YIH-91" value="code" style="shape=partialRectangle;top=0;left=0;right=0;bottom=0;align=left;verticalAlign=top;spacingTop=-2;fillColor=none;spacingLeft=64;spacingRight=4;overflow=hidden;rotatable=0;points=[[0,0.5],[1,0.5]];portConstraint=eastwest;dropTarget=0;" parent="hcgZa9_8ygzGzkx22YIH-86" vertex="1">
          <mxGeometry y="78" width="170" height="26" as="geometry" />
        </mxCell>
        <mxCell id="hcgZa9_8ygzGzkx22YIH-92" value="" style="shape=partialRectangle;top=0;left=0;bottom=0;fillColor=none;align=left;verticalAlign=middle;spacingLeft=4;spacingRight=4;overflow=hidden;rotatable=180;points=[];portConstraint=eastwest;part=1;" parent="hcgZa9_8ygzGzkx22YIH-91" vertex="1" connectable="0">
          <mxGeometry width="54" height="26" as="geometry" />
        </mxCell>
        <mxCell id="hcgZa9_8ygzGzkx22YIH-95" value="deactivation_start" style="shape=partialRectangle;top=0;left=0;right=0;bottom=0;align=left;verticalAlign=top;spacingTop=-2;fillColor=none;spacingLeft=64;spacingRight=4;overflow=hidden;rotatable=0;points=[[0,0.5],[1,0.5]];portConstraint=eastwest;dropTarget=0;" parent="hcgZa9_8ygzGzkx22YIH-86" vertex="1">
          <mxGeometry y="104" width="170" height="26" as="geometry" />
        </mxCell>
        <mxCell id="hcgZa9_8ygzGzkx22YIH-96" value="" style="shape=partialRectangle;top=0;left=0;bottom=0;fillColor=none;align=left;verticalAlign=middle;spacingLeft=4;spacingRight=4;overflow=hidden;rotatable=180;points=[];portConstraint=eastwest;part=1;" parent="hcgZa9_8ygzGzkx22YIH-95" vertex="1" connectable="0">
          <mxGeometry width="54" height="26" as="geometry" />
        </mxCell>
        <mxCell id="hcgZa9_8ygzGzkx22YIH-97" value="deactivation_end" style="shape=partialRectangle;top=0;left=0;right=0;bottom=0;align=left;verticalAlign=top;spacingTop=-2;fillColor=none;spacingLeft=64;spacingRight=4;overflow=hidden;rotatable=0;points=[[0,0.5],[1,0.5]];portConstraint=eastwest;dropTarget=0;" parent="hcgZa9_8ygzGzkx22YIH-86" vertex="1">
          <mxGeometry y="130" width="170" height="26" as="geometry" />
        </mxCell>
        <mxCell id="hcgZa9_8ygzGzkx22YIH-98" value="" style="shape=partialRectangle;top=0;left=0;bottom=0;fillColor=none;align=left;verticalAlign=middle;spacingLeft=4;spacingRight=4;overflow=hidden;rotatable=180;points=[];portConstraint=eastwest;part=1;" parent="hcgZa9_8ygzGzkx22YIH-97" vertex="1" connectable="0">
          <mxGeometry width="54" height="26" as="geometry" />
        </mxCell>
        <mxCell id="hcgZa9_8ygzGzkx22YIH-105" style="edgeStyle=orthogonalEdgeStyle;rounded=0;orthogonalLoop=1;jettySize=auto;html=1;fontSize=13;fontColor=#000000;startArrow=none;startFill=0;endArrow=classic;endFill=1;strokeColor=#000000;" parent="_UUj0PnGwrhtZNTvFV52-1" source="hcgZa9_8ygzGzkx22YIH-57" target="hcgZa9_8ygzGzkx22YIH-89" edge="1">
          <mxGeometry relative="1" as="geometry">
            <Array as="points">
              <mxPoint x="800" y="599" />
              <mxPoint x="800" y="625" />
            </Array>
          </mxGeometry>
        </mxCell>
        <mxCell id="hcgZa9_8ygzGzkx22YIH-106" value="game_genre" style="swimlane;fontStyle=0;childLayout=stackLayout;horizontal=1;startSize=26;fillColor=#e0e0e0;horizontalStack=0;resizeParent=1;resizeLast=0;collapsible=1;marginBottom=0;swimlaneFillColor=#ffffff;align=center;" parent="_UUj0PnGwrhtZNTvFV52-1" vertex="1">
          <mxGeometry x="360" y="440" width="150" height="80" as="geometry">
            <mxRectangle x="360" y="440" width="100" height="26" as="alternateBounds" />
          </mxGeometry>
        </mxCell>
        <mxCell id="hcgZa9_8ygzGzkx22YIH-107" value="game_id" style="shape=partialRectangle;top=0;left=0;right=0;bottom=0;align=left;verticalAlign=top;spacingTop=-2;fillColor=none;spacingLeft=64;spacingRight=4;overflow=hidden;rotatable=0;points=[[0,0.5],[1,0.5]];portConstraint=eastwest;dropTarget=0;" parent="hcgZa9_8ygzGzkx22YIH-106" vertex="1">
          <mxGeometry y="26" width="150" height="26" as="geometry" />
        </mxCell>
        <mxCell id="hcgZa9_8ygzGzkx22YIH-108" value="" style="shape=partialRectangle;top=0;left=0;bottom=0;fillColor=none;align=left;verticalAlign=middle;spacingLeft=4;spacingRight=4;overflow=hidden;rotatable=180;points=[];portConstraint=eastwest;part=1;" parent="hcgZa9_8ygzGzkx22YIH-107" vertex="1" connectable="0">
          <mxGeometry width="54" height="26" as="geometry" />
        </mxCell>
        <mxCell id="hcgZa9_8ygzGzkx22YIH-109" value="genre_id" style="shape=partialRectangle;top=0;left=0;right=0;bottom=0;align=left;verticalAlign=top;spacingTop=-2;fillColor=none;spacingLeft=64;spacingRight=4;overflow=hidden;rotatable=0;points=[[0,0.5],[1,0.5]];portConstraint=eastwest;dropTarget=0;" parent="hcgZa9_8ygzGzkx22YIH-106" vertex="1">
          <mxGeometry y="52" width="150" height="28" as="geometry" />
        </mxCell>
        <mxCell id="hcgZa9_8ygzGzkx22YIH-110" value="" style="shape=partialRectangle;top=0;left=0;bottom=0;fillColor=none;align=left;verticalAlign=middle;spacingLeft=4;spacingRight=4;overflow=hidden;rotatable=180;points=[];portConstraint=eastwest;part=1;" parent="hcgZa9_8ygzGzkx22YIH-109" vertex="1" connectable="0">
          <mxGeometry width="54" height="28" as="geometry" />
        </mxCell>
        <mxCell id="hcgZa9_8ygzGzkx22YIH-115" style="edgeStyle=orthogonalEdgeStyle;rounded=0;orthogonalLoop=1;jettySize=auto;html=1;fontSize=13;fontColor=#000000;startArrow=classic;startFill=1;endArrow=none;endFill=0;strokeColor=#000000;" parent="_UUj0PnGwrhtZNTvFV52-1" source="hcgZa9_8ygzGzkx22YIH-1" target="hcgZa9_8ygzGzkx22YIH-107" edge="1">
          <mxGeometry relative="1" as="geometry" />
        </mxCell>
        <mxCell id="hcgZa9_8ygzGzkx22YIH-116" style="edgeStyle=orthogonalEdgeStyle;rounded=0;orthogonalLoop=1;jettySize=auto;html=1;fontSize=13;fontColor=#000000;startArrow=none;startFill=0;endArrow=classic;endFill=1;strokeColor=#000000;" parent="_UUj0PnGwrhtZNTvFV52-1" source="hcgZa9_8ygzGzkx22YIH-109" target="hcgZa9_8ygzGzkx22YIH-70" edge="1">
          <mxGeometry relative="1" as="geometry">
            <Array as="points">
              <mxPoint x="560" y="506" />
              <mxPoint x="560" y="399" />
            </Array>
          </mxGeometry>
        </mxCell>
        <mxCell id="hcgZa9_8ygzGzkx22YIH-117" value="game_device" style="swimlane;fontStyle=0;childLayout=stackLayout;horizontal=1;startSize=26;fillColor=#e0e0e0;horizontalStack=0;resizeParent=1;resizeLast=0;collapsible=1;marginBottom=0;swimlaneFillColor=#ffffff;align=center;" parent="_UUj0PnGwrhtZNTvFV52-1" vertex="1">
          <mxGeometry x="360" y="600" width="150" height="80" as="geometry">
            <mxRectangle x="360" y="600" width="100" height="26" as="alternateBounds" />
          </mxGeometry>
        </mxCell>
        <mxCell id="hcgZa9_8ygzGzkx22YIH-118" value="game_id" style="shape=partialRectangle;top=0;left=0;right=0;bottom=0;align=left;verticalAlign=top;spacingTop=-2;fillColor=none;spacingLeft=64;spacingRight=4;overflow=hidden;rotatable=0;points=[[0,0.5],[1,0.5]];portConstraint=eastwest;dropTarget=0;" parent="hcgZa9_8ygzGzkx22YIH-117" vertex="1">
          <mxGeometry y="26" width="150" height="26" as="geometry" />
        </mxCell>
        <mxCell id="hcgZa9_8ygzGzkx22YIH-119" value="" style="shape=partialRectangle;top=0;left=0;bottom=0;fillColor=none;align=left;verticalAlign=middle;spacingLeft=4;spacingRight=4;overflow=hidden;rotatable=180;points=[];portConstraint=eastwest;part=1;" parent="hcgZa9_8ygzGzkx22YIH-118" vertex="1" connectable="0">
          <mxGeometry width="54" height="26" as="geometry" />
        </mxCell>
        <mxCell id="hcgZa9_8ygzGzkx22YIH-120" value="device_id" style="shape=partialRectangle;top=0;left=0;right=0;bottom=0;align=left;verticalAlign=top;spacingTop=-2;fillColor=none;spacingLeft=64;spacingRight=4;overflow=hidden;rotatable=0;points=[[0,0.5],[1,0.5]];portConstraint=eastwest;dropTarget=0;" parent="hcgZa9_8ygzGzkx22YIH-117" vertex="1">
          <mxGeometry y="52" width="150" height="28" as="geometry" />
        </mxCell>
        <mxCell id="hcgZa9_8ygzGzkx22YIH-121" value="" style="shape=partialRectangle;top=0;left=0;bottom=0;fillColor=none;align=left;verticalAlign=middle;spacingLeft=4;spacingRight=4;overflow=hidden;rotatable=180;points=[];portConstraint=eastwest;part=1;" parent="hcgZa9_8ygzGzkx22YIH-120" vertex="1" connectable="0">
          <mxGeometry width="54" height="28" as="geometry" />
        </mxCell>
        <mxCell id="hcgZa9_8ygzGzkx22YIH-123" style="edgeStyle=orthogonalEdgeStyle;rounded=0;orthogonalLoop=1;jettySize=auto;html=1;fontSize=13;fontColor=#000000;startArrow=classic;startFill=1;endArrow=none;endFill=0;strokeColor=#000000;" parent="_UUj0PnGwrhtZNTvFV52-1" source="hcgZa9_8ygzGzkx22YIH-1" target="hcgZa9_8ygzGzkx22YIH-118" edge="1">
          <mxGeometry relative="1" as="geometry" />
        </mxCell>
        <mxCell id="hcgZa9_8ygzGzkx22YIH-126" style="edgeStyle=orthogonalEdgeStyle;rounded=0;orthogonalLoop=1;jettySize=auto;html=1;fontSize=13;fontColor=#000000;startArrow=classic;startFill=1;endArrow=none;endFill=0;strokeColor=#000000;" parent="_UUj0PnGwrhtZNTvFV52-1" source="hcgZa9_8ygzGzkx22YIH-57" target="hcgZa9_8ygzGzkx22YIH-120" edge="1">
          <mxGeometry relative="1" as="geometry">
            <Array as="points">
              <mxPoint x="560" y="599" />
              <mxPoint x="560" y="666" />
            </Array>
          </mxGeometry>
        </mxCell>
        <mxCell id="QO6-LLWDAy3_PbgjMUUr-0" value="Many To Many" style="rounded=1;whiteSpace=wrap;html=1;fontSize=13;strokeWidth=1;gradientDirection=north;verticalAlign=top;" parent="_UUj0PnGwrhtZNTvFV52-1" vertex="1">
          <mxGeometry x="90" y="203.5" width="110" height="30" as="geometry" />
        </mxCell>
        <mxCell id="QO6-LLWDAy3_PbgjMUUr-1" value="" style="edgeStyle=none;rounded=1;orthogonalLoop=1;jettySize=auto;html=1;fontSize=13;fontColor=#000000;startArrow=classic;startFill=1;endArrow=none;endFill=1;strokeColor=#000000;" parent="_UUj0PnGwrhtZNTvFV52-1" source="XJXbkS5cyhszQwbjgAkD-0" target="QO6-LLWDAy3_PbgjMUUr-0" edge="1">
          <mxGeometry relative="1" as="geometry">
            <mxPoint x="57.5" y="218.5" as="sourcePoint" />
            <mxPoint x="232.5" y="218.5" as="targetPoint" />
          </mxGeometry>
        </mxCell>
        <mxCell id="8HJu1ARS4sKTXAKbeg0C-0" value="&lt;h1&gt;&lt;font style=&quot;font-size: 20px&quot;&gt;Devices&lt;/font&gt;&lt;/h1&gt;&lt;h1 style=&quot;font-size: 14px&quot;&gt;&lt;ol style=&quot;line-height: 140%&quot;&gt;&lt;li&gt;&lt;span style=&quot;font-weight: 400&quot;&gt;Все ресурсы будут иметь сосбтвенные эндпоинты&lt;/span&gt;&lt;/li&gt;&lt;li&gt;&lt;span style=&quot;font-weight: 400&quot;&gt;Устройства (Инстансы) также будут иметь статус деактивации&lt;/span&gt;&lt;br&gt;&lt;/li&gt;&lt;li&gt;&lt;span style=&quot;font-weight: 400&quot;&gt;Нужно также дополнительные сервисы для выдачи активных устройств по типам&lt;/span&gt;&lt;/li&gt;&lt;li&gt;&lt;span style=&quot;font-weight: 400&quot;&gt;Также игры/девайсы будут иметь доступ к галереи (изображения)&lt;/span&gt;&lt;/li&gt;&lt;/ol&gt;&lt;/h1&gt;" style="text;html=1;spacing=5;spacingTop=-20;whiteSpace=wrap;overflow=hidden;rounded=0;fillColor=default;" parent="_UUj0PnGwrhtZNTvFV52-1" vertex="1">
          <mxGeometry x="520" y="10" width="630" height="210" as="geometry" />
        </mxCell>
        <mxCell id="xgUNLLzZuPSQiov2O7FD-0" value="Database" parent="_UUj0PnGwrhtZNTvFV52-0" />
        <mxCell id="xgUNLLzZuPSQiov2O7FD-1" value="Untitled Layer" parent="_UUj0PnGwrhtZNTvFV52-0" />
      </root>
    </mxGraphModel>
  </diagram>
  <diagram id="SFULgICf9j-x_hfGme1A" name="Customer service">
    <mxGraphModel dx="1191" dy="713" grid="1" gridSize="10" guides="1" tooltips="1" connect="1" arrows="1" fold="1" page="1" pageScale="1" pageWidth="1169" pageHeight="827" math="0" shadow="0">
      <root>
        <mxCell id="XOpUTY_rspNlDYiZGcJo-0" />
        <mxCell id="XOpUTY_rspNlDYiZGcJo-1" parent="XOpUTY_rspNlDYiZGcJo-0" />
        <mxCell id="95JCEZ9YM2iMwwNToK2o-31" value="customers" style="shape=table;startSize=30;container=1;collapsible=1;childLayout=tableLayout;fixedRows=1;rowLines=0;fontStyle=1;align=center;resizeLast=1;fillColor=#E6E6E6;swimlaneFillColor=default;" parent="XOpUTY_rspNlDYiZGcJo-1" vertex="1">
          <mxGeometry x="515" y="440" width="180" height="340" as="geometry" />
        </mxCell>
        <mxCell id="95JCEZ9YM2iMwwNToK2o-32" value="" style="shape=partialRectangle;collapsible=0;dropTarget=0;pointerEvents=0;fillColor=none;points=[[0,0.5],[1,0.5]];portConstraint=eastwest;top=0;left=0;right=0;bottom=0;" parent="95JCEZ9YM2iMwwNToK2o-31" vertex="1">
          <mxGeometry y="30" width="180" height="30" as="geometry" />
        </mxCell>
        <mxCell id="95JCEZ9YM2iMwwNToK2o-33" value="" style="shape=partialRectangle;overflow=hidden;connectable=0;fillColor=none;top=0;left=0;bottom=0;right=0;" parent="95JCEZ9YM2iMwwNToK2o-32" vertex="1">
          <mxGeometry width="30" height="30" as="geometry">
            <mxRectangle width="30" height="30" as="alternateBounds" />
          </mxGeometry>
        </mxCell>
        <mxCell id="95JCEZ9YM2iMwwNToK2o-34" value="id" style="shape=partialRectangle;overflow=hidden;connectable=0;fillColor=none;top=0;left=0;bottom=0;right=0;align=left;spacingLeft=6;" parent="95JCEZ9YM2iMwwNToK2o-32" vertex="1">
          <mxGeometry x="30" width="150" height="30" as="geometry">
            <mxRectangle width="150" height="30" as="alternateBounds" />
          </mxGeometry>
        </mxCell>
        <mxCell id="95JCEZ9YM2iMwwNToK2o-35" value="" style="shape=partialRectangle;collapsible=0;dropTarget=0;pointerEvents=0;fillColor=none;points=[[0,0.5],[1,0.5]];portConstraint=eastwest;top=0;left=0;right=0;bottom=0;" parent="95JCEZ9YM2iMwwNToK2o-31" vertex="1">
          <mxGeometry y="60" width="180" height="30" as="geometry" />
        </mxCell>
        <mxCell id="95JCEZ9YM2iMwwNToK2o-36" value="" style="shape=partialRectangle;overflow=hidden;connectable=0;fillColor=none;top=0;left=0;bottom=0;right=0;" parent="95JCEZ9YM2iMwwNToK2o-35" vertex="1">
          <mxGeometry width="30" height="30" as="geometry">
            <mxRectangle width="30" height="30" as="alternateBounds" />
          </mxGeometry>
        </mxCell>
        <mxCell id="95JCEZ9YM2iMwwNToK2o-37" value="first_name" style="shape=partialRectangle;overflow=hidden;connectable=0;fillColor=none;top=0;left=0;bottom=0;right=0;align=left;spacingLeft=6;" parent="95JCEZ9YM2iMwwNToK2o-35" vertex="1">
          <mxGeometry x="30" width="150" height="30" as="geometry">
            <mxRectangle width="150" height="30" as="alternateBounds" />
          </mxGeometry>
        </mxCell>
        <mxCell id="95JCEZ9YM2iMwwNToK2o-38" value="" style="shape=partialRectangle;collapsible=0;dropTarget=0;pointerEvents=0;fillColor=none;points=[[0,0.5],[1,0.5]];portConstraint=eastwest;top=0;left=0;right=0;bottom=0;" parent="95JCEZ9YM2iMwwNToK2o-31" vertex="1">
          <mxGeometry y="90" width="180" height="30" as="geometry" />
        </mxCell>
        <mxCell id="95JCEZ9YM2iMwwNToK2o-39" value="" style="shape=partialRectangle;overflow=hidden;connectable=0;fillColor=none;top=0;left=0;bottom=0;right=0;" parent="95JCEZ9YM2iMwwNToK2o-38" vertex="1">
          <mxGeometry width="30" height="30" as="geometry">
            <mxRectangle width="30" height="30" as="alternateBounds" />
          </mxGeometry>
        </mxCell>
        <mxCell id="95JCEZ9YM2iMwwNToK2o-40" value="last_name" style="shape=partialRectangle;overflow=hidden;connectable=0;fillColor=none;top=0;left=0;bottom=0;right=0;align=left;spacingLeft=6;" parent="95JCEZ9YM2iMwwNToK2o-38" vertex="1">
          <mxGeometry x="30" width="150" height="30" as="geometry">
            <mxRectangle width="150" height="30" as="alternateBounds" />
          </mxGeometry>
        </mxCell>
        <mxCell id="95JCEZ9YM2iMwwNToK2o-41" value="" style="shape=partialRectangle;collapsible=0;dropTarget=0;pointerEvents=0;fillColor=none;points=[[0,0.5],[1,0.5]];portConstraint=eastwest;top=0;left=0;right=0;bottom=0;" parent="95JCEZ9YM2iMwwNToK2o-31" vertex="1">
          <mxGeometry y="120" width="180" height="30" as="geometry" />
        </mxCell>
        <mxCell id="95JCEZ9YM2iMwwNToK2o-42" value="" style="shape=partialRectangle;overflow=hidden;connectable=0;fillColor=none;top=0;left=0;bottom=0;right=0;" parent="95JCEZ9YM2iMwwNToK2o-41" vertex="1">
          <mxGeometry width="30" height="30" as="geometry">
            <mxRectangle width="30" height="30" as="alternateBounds" />
          </mxGeometry>
        </mxCell>
        <mxCell id="95JCEZ9YM2iMwwNToK2o-43" value="phone" style="shape=partialRectangle;overflow=hidden;connectable=0;fillColor=none;top=0;left=0;bottom=0;right=0;align=left;spacingLeft=6;" parent="95JCEZ9YM2iMwwNToK2o-41" vertex="1">
          <mxGeometry x="30" width="150" height="30" as="geometry">
            <mxRectangle width="150" height="30" as="alternateBounds" />
          </mxGeometry>
        </mxCell>
        <mxCell id="95JCEZ9YM2iMwwNToK2o-44" value="" style="shape=partialRectangle;collapsible=0;dropTarget=0;pointerEvents=0;fillColor=none;points=[[0,0.5],[1,0.5]];portConstraint=eastwest;top=0;left=0;right=0;bottom=0;" parent="95JCEZ9YM2iMwwNToK2o-31" vertex="1">
          <mxGeometry y="150" width="180" height="30" as="geometry" />
        </mxCell>
        <mxCell id="95JCEZ9YM2iMwwNToK2o-45" value="" style="shape=partialRectangle;overflow=hidden;connectable=0;fillColor=none;top=0;left=0;bottom=0;right=0;" parent="95JCEZ9YM2iMwwNToK2o-44" vertex="1">
          <mxGeometry width="30" height="30" as="geometry">
            <mxRectangle width="30" height="30" as="alternateBounds" />
          </mxGeometry>
        </mxCell>
        <mxCell id="95JCEZ9YM2iMwwNToK2o-46" value="email" style="shape=partialRectangle;overflow=hidden;connectable=0;fillColor=none;top=0;left=0;bottom=0;right=0;align=left;spacingLeft=6;" parent="95JCEZ9YM2iMwwNToK2o-44" vertex="1">
          <mxGeometry x="30" width="150" height="30" as="geometry">
            <mxRectangle width="150" height="30" as="alternateBounds" />
          </mxGeometry>
        </mxCell>
        <mxCell id="95JCEZ9YM2iMwwNToK2o-47" value="" style="shape=partialRectangle;collapsible=0;dropTarget=0;pointerEvents=0;fillColor=none;points=[[0,0.5],[1,0.5]];portConstraint=eastwest;top=0;left=0;right=0;bottom=0;" parent="95JCEZ9YM2iMwwNToK2o-31" vertex="1">
          <mxGeometry y="180" width="180" height="30" as="geometry" />
        </mxCell>
        <mxCell id="95JCEZ9YM2iMwwNToK2o-48" value="" style="shape=partialRectangle;overflow=hidden;connectable=0;fillColor=none;top=0;left=0;bottom=0;right=0;" parent="95JCEZ9YM2iMwwNToK2o-47" vertex="1">
          <mxGeometry width="30" height="30" as="geometry">
            <mxRectangle width="30" height="30" as="alternateBounds" />
          </mxGeometry>
        </mxCell>
        <mxCell id="95JCEZ9YM2iMwwNToK2o-49" value="gender" style="shape=partialRectangle;overflow=hidden;connectable=0;fillColor=none;top=0;left=0;bottom=0;right=0;align=left;spacingLeft=6;" parent="95JCEZ9YM2iMwwNToK2o-47" vertex="1">
          <mxGeometry x="30" width="150" height="30" as="geometry">
            <mxRectangle width="150" height="30" as="alternateBounds" />
          </mxGeometry>
        </mxCell>
        <mxCell id="95JCEZ9YM2iMwwNToK2o-50" value="" style="shape=partialRectangle;collapsible=0;dropTarget=0;pointerEvents=0;fillColor=none;points=[[0,0.5],[1,0.5]];portConstraint=eastwest;top=0;left=0;right=0;bottom=0;" parent="95JCEZ9YM2iMwwNToK2o-31" vertex="1">
          <mxGeometry y="210" width="180" height="30" as="geometry" />
        </mxCell>
        <mxCell id="95JCEZ9YM2iMwwNToK2o-51" value="" style="shape=partialRectangle;overflow=hidden;connectable=0;fillColor=none;top=0;left=0;bottom=0;right=0;" parent="95JCEZ9YM2iMwwNToK2o-50" vertex="1">
          <mxGeometry width="30" height="30" as="geometry">
            <mxRectangle width="30" height="30" as="alternateBounds" />
          </mxGeometry>
        </mxCell>
        <mxCell id="95JCEZ9YM2iMwwNToK2o-52" value="birthday" style="shape=partialRectangle;overflow=hidden;connectable=0;fillColor=none;top=0;left=0;bottom=0;right=0;align=left;spacingLeft=6;" parent="95JCEZ9YM2iMwwNToK2o-50" vertex="1">
          <mxGeometry x="30" width="150" height="30" as="geometry">
            <mxRectangle width="150" height="30" as="alternateBounds" />
          </mxGeometry>
        </mxCell>
        <mxCell id="95JCEZ9YM2iMwwNToK2o-53" value="" style="shape=partialRectangle;collapsible=0;dropTarget=0;pointerEvents=0;fillColor=none;points=[[0,0.5],[1,0.5]];portConstraint=eastwest;top=0;left=0;right=0;bottom=0;" parent="95JCEZ9YM2iMwwNToK2o-31" vertex="1">
          <mxGeometry y="240" width="180" height="30" as="geometry" />
        </mxCell>
        <mxCell id="95JCEZ9YM2iMwwNToK2o-54" value="" style="shape=partialRectangle;overflow=hidden;connectable=0;fillColor=none;top=0;left=0;bottom=0;right=0;" parent="95JCEZ9YM2iMwwNToK2o-53" vertex="1">
          <mxGeometry width="30" height="30" as="geometry">
            <mxRectangle width="30" height="30" as="alternateBounds" />
          </mxGeometry>
        </mxCell>
        <mxCell id="95JCEZ9YM2iMwwNToK2o-55" value="author_id" style="shape=partialRectangle;overflow=hidden;connectable=0;fillColor=none;top=0;left=0;bottom=0;right=0;align=left;spacingLeft=6;" parent="95JCEZ9YM2iMwwNToK2o-53" vertex="1">
          <mxGeometry x="30" width="150" height="30" as="geometry">
            <mxRectangle width="150" height="30" as="alternateBounds" />
          </mxGeometry>
        </mxCell>
        <mxCell id="95JCEZ9YM2iMwwNToK2o-56" value="" style="shape=partialRectangle;collapsible=0;dropTarget=0;pointerEvents=0;fillColor=none;points=[[0,0.5],[1,0.5]];portConstraint=eastwest;top=0;left=0;right=0;bottom=0;" parent="95JCEZ9YM2iMwwNToK2o-31" vertex="1">
          <mxGeometry y="270" width="180" height="30" as="geometry" />
        </mxCell>
        <mxCell id="95JCEZ9YM2iMwwNToK2o-57" value="" style="shape=partialRectangle;overflow=hidden;connectable=0;fillColor=none;top=0;left=0;bottom=0;right=0;" parent="95JCEZ9YM2iMwwNToK2o-56" vertex="1">
          <mxGeometry width="30" height="30" as="geometry">
            <mxRectangle width="30" height="30" as="alternateBounds" />
          </mxGeometry>
        </mxCell>
        <mxCell id="95JCEZ9YM2iMwwNToK2o-58" value="created_at" style="shape=partialRectangle;overflow=hidden;connectable=0;fillColor=none;top=0;left=0;bottom=0;right=0;align=left;spacingLeft=6;" parent="95JCEZ9YM2iMwwNToK2o-56" vertex="1">
          <mxGeometry x="30" width="150" height="30" as="geometry">
            <mxRectangle width="150" height="30" as="alternateBounds" />
          </mxGeometry>
        </mxCell>
        <mxCell id="95JCEZ9YM2iMwwNToK2o-59" value="" style="shape=partialRectangle;collapsible=0;dropTarget=0;pointerEvents=0;fillColor=none;points=[[0,0.5],[1,0.5]];portConstraint=eastwest;top=0;left=0;right=0;bottom=0;" parent="95JCEZ9YM2iMwwNToK2o-31" vertex="1">
          <mxGeometry y="300" width="180" height="30" as="geometry" />
        </mxCell>
        <mxCell id="95JCEZ9YM2iMwwNToK2o-60" value="" style="shape=partialRectangle;overflow=hidden;connectable=0;fillColor=none;top=0;left=0;bottom=0;right=0;" parent="95JCEZ9YM2iMwwNToK2o-59" vertex="1">
          <mxGeometry width="30" height="30" as="geometry">
            <mxRectangle width="30" height="30" as="alternateBounds" />
          </mxGeometry>
        </mxCell>
        <mxCell id="95JCEZ9YM2iMwwNToK2o-61" value="updated_at" style="shape=partialRectangle;overflow=hidden;connectable=0;fillColor=none;top=0;left=0;bottom=0;right=0;align=left;spacingLeft=6;" parent="95JCEZ9YM2iMwwNToK2o-59" vertex="1">
          <mxGeometry x="30" width="150" height="30" as="geometry">
            <mxRectangle width="150" height="30" as="alternateBounds" />
          </mxGeometry>
        </mxCell>
        <mxCell id="uIptmTDpXrDAQbzfnpnJ-0" value="customer_bonus_cards" style="shape=table;startSize=30;container=1;collapsible=1;childLayout=tableLayout;fixedRows=1;rowLines=0;fontStyle=1;align=center;resizeLast=1;fillColor=#E6E6E6;swimlaneFillColor=default;" parent="XOpUTY_rspNlDYiZGcJo-1" vertex="1">
          <mxGeometry x="755" y="440" width="180" height="280" as="geometry" />
        </mxCell>
        <mxCell id="uIptmTDpXrDAQbzfnpnJ-1" value="" style="shape=partialRectangle;collapsible=0;dropTarget=0;pointerEvents=0;fillColor=none;points=[[0,0.5],[1,0.5]];portConstraint=eastwest;top=0;left=0;right=0;bottom=0;" parent="uIptmTDpXrDAQbzfnpnJ-0" vertex="1">
          <mxGeometry y="30" width="180" height="30" as="geometry" />
        </mxCell>
        <mxCell id="uIptmTDpXrDAQbzfnpnJ-2" value="" style="shape=partialRectangle;overflow=hidden;connectable=0;fillColor=none;top=0;left=0;bottom=0;right=0;" parent="uIptmTDpXrDAQbzfnpnJ-1" vertex="1">
          <mxGeometry width="30" height="30" as="geometry">
            <mxRectangle width="30" height="30" as="alternateBounds" />
          </mxGeometry>
        </mxCell>
        <mxCell id="uIptmTDpXrDAQbzfnpnJ-3" value="id" style="shape=partialRectangle;overflow=hidden;connectable=0;fillColor=none;top=0;left=0;bottom=0;right=0;align=left;spacingLeft=6;" parent="uIptmTDpXrDAQbzfnpnJ-1" vertex="1">
          <mxGeometry x="30" width="150" height="30" as="geometry">
            <mxRectangle width="150" height="30" as="alternateBounds" />
          </mxGeometry>
        </mxCell>
        <mxCell id="uIptmTDpXrDAQbzfnpnJ-4" value="" style="shape=partialRectangle;collapsible=0;dropTarget=0;pointerEvents=0;fillColor=none;points=[[0,0.5],[1,0.5]];portConstraint=eastwest;top=0;left=0;right=0;bottom=0;" parent="uIptmTDpXrDAQbzfnpnJ-0" vertex="1">
          <mxGeometry y="60" width="180" height="30" as="geometry" />
        </mxCell>
        <mxCell id="uIptmTDpXrDAQbzfnpnJ-5" value="" style="shape=partialRectangle;overflow=hidden;connectable=0;fillColor=none;top=0;left=0;bottom=0;right=0;" parent="uIptmTDpXrDAQbzfnpnJ-4" vertex="1">
          <mxGeometry width="30" height="30" as="geometry">
            <mxRectangle width="30" height="30" as="alternateBounds" />
          </mxGeometry>
        </mxCell>
        <mxCell id="uIptmTDpXrDAQbzfnpnJ-6" value="code" style="shape=partialRectangle;overflow=hidden;connectable=0;fillColor=none;top=0;left=0;bottom=0;right=0;align=left;spacingLeft=6;" parent="uIptmTDpXrDAQbzfnpnJ-4" vertex="1">
          <mxGeometry x="30" width="150" height="30" as="geometry">
            <mxRectangle width="150" height="30" as="alternateBounds" />
          </mxGeometry>
        </mxCell>
        <mxCell id="uIptmTDpXrDAQbzfnpnJ-7" value="" style="shape=partialRectangle;collapsible=0;dropTarget=0;pointerEvents=0;fillColor=none;points=[[0,0.5],[1,0.5]];portConstraint=eastwest;top=0;left=0;right=0;bottom=0;" parent="uIptmTDpXrDAQbzfnpnJ-0" vertex="1">
          <mxGeometry y="90" width="180" height="30" as="geometry" />
        </mxCell>
        <mxCell id="uIptmTDpXrDAQbzfnpnJ-8" value="" style="shape=partialRectangle;overflow=hidden;connectable=0;fillColor=none;top=0;left=0;bottom=0;right=0;" parent="uIptmTDpXrDAQbzfnpnJ-7" vertex="1">
          <mxGeometry width="30" height="30" as="geometry">
            <mxRectangle width="30" height="30" as="alternateBounds" />
          </mxGeometry>
        </mxCell>
        <mxCell id="uIptmTDpXrDAQbzfnpnJ-9" value="cusomer_id" style="shape=partialRectangle;overflow=hidden;connectable=0;fillColor=none;top=0;left=0;bottom=0;right=0;align=left;spacingLeft=6;" parent="uIptmTDpXrDAQbzfnpnJ-7" vertex="1">
          <mxGeometry x="30" width="150" height="30" as="geometry">
            <mxRectangle width="150" height="30" as="alternateBounds" />
          </mxGeometry>
        </mxCell>
        <mxCell id="uIptmTDpXrDAQbzfnpnJ-10" value="" style="shape=partialRectangle;collapsible=0;dropTarget=0;pointerEvents=0;fillColor=none;points=[[0,0.5],[1,0.5]];portConstraint=eastwest;top=0;left=0;right=0;bottom=0;" parent="uIptmTDpXrDAQbzfnpnJ-0" vertex="1">
          <mxGeometry y="120" width="180" height="30" as="geometry" />
        </mxCell>
        <mxCell id="uIptmTDpXrDAQbzfnpnJ-11" value="" style="shape=partialRectangle;overflow=hidden;connectable=0;fillColor=none;top=0;left=0;bottom=0;right=0;" parent="uIptmTDpXrDAQbzfnpnJ-10" vertex="1">
          <mxGeometry width="30" height="30" as="geometry">
            <mxRectangle width="30" height="30" as="alternateBounds" />
          </mxGeometry>
        </mxCell>
        <mxCell id="uIptmTDpXrDAQbzfnpnJ-12" value="start_balance" style="shape=partialRectangle;overflow=hidden;connectable=0;fillColor=none;top=0;left=0;bottom=0;right=0;align=left;spacingLeft=6;" parent="uIptmTDpXrDAQbzfnpnJ-10" vertex="1">
          <mxGeometry x="30" width="150" height="30" as="geometry">
            <mxRectangle width="150" height="30" as="alternateBounds" />
          </mxGeometry>
        </mxCell>
        <mxCell id="uIptmTDpXrDAQbzfnpnJ-13" value="" style="shape=partialRectangle;collapsible=0;dropTarget=0;pointerEvents=0;fillColor=none;points=[[0,0.5],[1,0.5]];portConstraint=eastwest;top=0;left=0;right=0;bottom=0;" parent="uIptmTDpXrDAQbzfnpnJ-0" vertex="1">
          <mxGeometry y="150" width="180" height="30" as="geometry" />
        </mxCell>
        <mxCell id="uIptmTDpXrDAQbzfnpnJ-14" value="" style="shape=partialRectangle;overflow=hidden;connectable=0;fillColor=none;top=0;left=0;bottom=0;right=0;" parent="uIptmTDpXrDAQbzfnpnJ-13" vertex="1">
          <mxGeometry width="30" height="30" as="geometry">
            <mxRectangle width="30" height="30" as="alternateBounds" />
          </mxGeometry>
        </mxCell>
        <mxCell id="uIptmTDpXrDAQbzfnpnJ-15" value="balance" style="shape=partialRectangle;overflow=hidden;connectable=0;fillColor=none;top=0;left=0;bottom=0;right=0;align=left;spacingLeft=6;" parent="uIptmTDpXrDAQbzfnpnJ-13" vertex="1">
          <mxGeometry x="30" width="150" height="30" as="geometry">
            <mxRectangle width="150" height="30" as="alternateBounds" />
          </mxGeometry>
        </mxCell>
        <mxCell id="uIptmTDpXrDAQbzfnpnJ-22" value="" style="shape=partialRectangle;collapsible=0;dropTarget=0;pointerEvents=0;fillColor=none;points=[[0,0.5],[1,0.5]];portConstraint=eastwest;top=0;left=0;right=0;bottom=0;" parent="uIptmTDpXrDAQbzfnpnJ-0" vertex="1">
          <mxGeometry y="180" width="180" height="30" as="geometry" />
        </mxCell>
        <mxCell id="uIptmTDpXrDAQbzfnpnJ-23" value="" style="shape=partialRectangle;overflow=hidden;connectable=0;fillColor=none;top=0;left=0;bottom=0;right=0;" parent="uIptmTDpXrDAQbzfnpnJ-22" vertex="1">
          <mxGeometry width="30" height="30" as="geometry">
            <mxRectangle width="30" height="30" as="alternateBounds" />
          </mxGeometry>
        </mxCell>
        <mxCell id="uIptmTDpXrDAQbzfnpnJ-24" value="author_id" style="shape=partialRectangle;overflow=hidden;connectable=0;fillColor=none;top=0;left=0;bottom=0;right=0;align=left;spacingLeft=6;" parent="uIptmTDpXrDAQbzfnpnJ-22" vertex="1">
          <mxGeometry x="30" width="150" height="30" as="geometry">
            <mxRectangle width="150" height="30" as="alternateBounds" />
          </mxGeometry>
        </mxCell>
        <mxCell id="uIptmTDpXrDAQbzfnpnJ-25" value="" style="shape=partialRectangle;collapsible=0;dropTarget=0;pointerEvents=0;fillColor=none;points=[[0,0.5],[1,0.5]];portConstraint=eastwest;top=0;left=0;right=0;bottom=0;" parent="uIptmTDpXrDAQbzfnpnJ-0" vertex="1">
          <mxGeometry y="210" width="180" height="30" as="geometry" />
        </mxCell>
        <mxCell id="uIptmTDpXrDAQbzfnpnJ-26" value="" style="shape=partialRectangle;overflow=hidden;connectable=0;fillColor=none;top=0;left=0;bottom=0;right=0;" parent="uIptmTDpXrDAQbzfnpnJ-25" vertex="1">
          <mxGeometry width="30" height="30" as="geometry">
            <mxRectangle width="30" height="30" as="alternateBounds" />
          </mxGeometry>
        </mxCell>
        <mxCell id="uIptmTDpXrDAQbzfnpnJ-27" value="created_at" style="shape=partialRectangle;overflow=hidden;connectable=0;fillColor=none;top=0;left=0;bottom=0;right=0;align=left;spacingLeft=6;" parent="uIptmTDpXrDAQbzfnpnJ-25" vertex="1">
          <mxGeometry x="30" width="150" height="30" as="geometry">
            <mxRectangle width="150" height="30" as="alternateBounds" />
          </mxGeometry>
        </mxCell>
        <mxCell id="uIptmTDpXrDAQbzfnpnJ-28" value="" style="shape=partialRectangle;collapsible=0;dropTarget=0;pointerEvents=0;fillColor=none;points=[[0,0.5],[1,0.5]];portConstraint=eastwest;top=0;left=0;right=0;bottom=0;" parent="uIptmTDpXrDAQbzfnpnJ-0" vertex="1">
          <mxGeometry y="240" width="180" height="30" as="geometry" />
        </mxCell>
        <mxCell id="uIptmTDpXrDAQbzfnpnJ-29" value="" style="shape=partialRectangle;overflow=hidden;connectable=0;fillColor=none;top=0;left=0;bottom=0;right=0;" parent="uIptmTDpXrDAQbzfnpnJ-28" vertex="1">
          <mxGeometry width="30" height="30" as="geometry">
            <mxRectangle width="30" height="30" as="alternateBounds" />
          </mxGeometry>
        </mxCell>
        <mxCell id="uIptmTDpXrDAQbzfnpnJ-30" value="updated_at" style="shape=partialRectangle;overflow=hidden;connectable=0;fillColor=none;top=0;left=0;bottom=0;right=0;align=left;spacingLeft=6;" parent="uIptmTDpXrDAQbzfnpnJ-28" vertex="1">
          <mxGeometry x="30" width="150" height="30" as="geometry">
            <mxRectangle width="150" height="30" as="alternateBounds" />
          </mxGeometry>
        </mxCell>
        <mxCell id="uIptmTDpXrDAQbzfnpnJ-31" style="edgeStyle=orthogonalEdgeStyle;rounded=0;orthogonalLoop=1;jettySize=auto;html=1;startArrow=classic;startFill=1;endArrow=none;endFill=0;" parent="XOpUTY_rspNlDYiZGcJo-1" source="95JCEZ9YM2iMwwNToK2o-32" target="uIptmTDpXrDAQbzfnpnJ-7" edge="1">
          <mxGeometry relative="1" as="geometry" />
        </mxCell>
        <mxCell id="uIptmTDpXrDAQbzfnpnJ-32" value="customer_loyalty_cards" style="shape=table;startSize=30;container=1;collapsible=1;childLayout=tableLayout;fixedRows=1;rowLines=0;fontStyle=1;align=center;resizeLast=1;fillColor=#E6E6E6;swimlaneFillColor=default;" parent="XOpUTY_rspNlDYiZGcJo-1" vertex="1">
          <mxGeometry x="235" y="440" width="180" height="250" as="geometry" />
        </mxCell>
        <mxCell id="uIptmTDpXrDAQbzfnpnJ-33" value="" style="shape=partialRectangle;collapsible=0;dropTarget=0;pointerEvents=0;fillColor=none;points=[[0,0.5],[1,0.5]];portConstraint=eastwest;top=0;left=0;right=0;bottom=0;" parent="uIptmTDpXrDAQbzfnpnJ-32" vertex="1">
          <mxGeometry y="30" width="180" height="30" as="geometry" />
        </mxCell>
        <mxCell id="uIptmTDpXrDAQbzfnpnJ-34" value="" style="shape=partialRectangle;overflow=hidden;connectable=0;fillColor=none;top=0;left=0;bottom=0;right=0;" parent="uIptmTDpXrDAQbzfnpnJ-33" vertex="1">
          <mxGeometry width="30" height="30" as="geometry">
            <mxRectangle width="30" height="30" as="alternateBounds" />
          </mxGeometry>
        </mxCell>
        <mxCell id="uIptmTDpXrDAQbzfnpnJ-35" value="id" style="shape=partialRectangle;overflow=hidden;connectable=0;fillColor=none;top=0;left=0;bottom=0;right=0;align=left;spacingLeft=6;" parent="uIptmTDpXrDAQbzfnpnJ-33" vertex="1">
          <mxGeometry x="30" width="150" height="30" as="geometry">
            <mxRectangle width="150" height="30" as="alternateBounds" />
          </mxGeometry>
        </mxCell>
        <mxCell id="uIptmTDpXrDAQbzfnpnJ-36" value="" style="shape=partialRectangle;collapsible=0;dropTarget=0;pointerEvents=0;fillColor=none;points=[[0,0.5],[1,0.5]];portConstraint=eastwest;top=0;left=0;right=0;bottom=0;" parent="uIptmTDpXrDAQbzfnpnJ-32" vertex="1">
          <mxGeometry y="60" width="180" height="30" as="geometry" />
        </mxCell>
        <mxCell id="uIptmTDpXrDAQbzfnpnJ-37" value="" style="shape=partialRectangle;overflow=hidden;connectable=0;fillColor=none;top=0;left=0;bottom=0;right=0;" parent="uIptmTDpXrDAQbzfnpnJ-36" vertex="1">
          <mxGeometry width="30" height="30" as="geometry">
            <mxRectangle width="30" height="30" as="alternateBounds" />
          </mxGeometry>
        </mxCell>
        <mxCell id="uIptmTDpXrDAQbzfnpnJ-38" value="code" style="shape=partialRectangle;overflow=hidden;connectable=0;fillColor=none;top=0;left=0;bottom=0;right=0;align=left;spacingLeft=6;" parent="uIptmTDpXrDAQbzfnpnJ-36" vertex="1">
          <mxGeometry x="30" width="150" height="30" as="geometry">
            <mxRectangle width="150" height="30" as="alternateBounds" />
          </mxGeometry>
        </mxCell>
        <mxCell id="uIptmTDpXrDAQbzfnpnJ-39" value="" style="shape=partialRectangle;collapsible=0;dropTarget=0;pointerEvents=0;fillColor=none;points=[[0,0.5],[1,0.5]];portConstraint=eastwest;top=0;left=0;right=0;bottom=0;" parent="uIptmTDpXrDAQbzfnpnJ-32" vertex="1">
          <mxGeometry y="90" width="180" height="30" as="geometry" />
        </mxCell>
        <mxCell id="uIptmTDpXrDAQbzfnpnJ-40" value="" style="shape=partialRectangle;overflow=hidden;connectable=0;fillColor=none;top=0;left=0;bottom=0;right=0;" parent="uIptmTDpXrDAQbzfnpnJ-39" vertex="1">
          <mxGeometry width="30" height="30" as="geometry">
            <mxRectangle width="30" height="30" as="alternateBounds" />
          </mxGeometry>
        </mxCell>
        <mxCell id="uIptmTDpXrDAQbzfnpnJ-41" value="cusomer_id" style="shape=partialRectangle;overflow=hidden;connectable=0;fillColor=none;top=0;left=0;bottom=0;right=0;align=left;spacingLeft=6;" parent="uIptmTDpXrDAQbzfnpnJ-39" vertex="1">
          <mxGeometry x="30" width="150" height="30" as="geometry">
            <mxRectangle width="150" height="30" as="alternateBounds" />
          </mxGeometry>
        </mxCell>
        <mxCell id="uIptmTDpXrDAQbzfnpnJ-42" value="" style="shape=partialRectangle;collapsible=0;dropTarget=0;pointerEvents=0;fillColor=none;points=[[0,0.5],[1,0.5]];portConstraint=eastwest;top=0;left=0;right=0;bottom=0;" parent="uIptmTDpXrDAQbzfnpnJ-32" vertex="1">
          <mxGeometry y="120" width="180" height="30" as="geometry" />
        </mxCell>
        <mxCell id="uIptmTDpXrDAQbzfnpnJ-43" value="" style="shape=partialRectangle;overflow=hidden;connectable=0;fillColor=none;top=0;left=0;bottom=0;right=0;" parent="uIptmTDpXrDAQbzfnpnJ-42" vertex="1">
          <mxGeometry width="30" height="30" as="geometry">
            <mxRectangle width="30" height="30" as="alternateBounds" />
          </mxGeometry>
        </mxCell>
        <mxCell id="uIptmTDpXrDAQbzfnpnJ-44" value="status" style="shape=partialRectangle;overflow=hidden;connectable=0;fillColor=none;top=0;left=0;bottom=0;right=0;align=left;spacingLeft=6;" parent="uIptmTDpXrDAQbzfnpnJ-42" vertex="1">
          <mxGeometry x="30" width="150" height="30" as="geometry">
            <mxRectangle width="150" height="30" as="alternateBounds" />
          </mxGeometry>
        </mxCell>
        <mxCell id="uIptmTDpXrDAQbzfnpnJ-48" value="" style="shape=partialRectangle;collapsible=0;dropTarget=0;pointerEvents=0;fillColor=none;points=[[0,0.5],[1,0.5]];portConstraint=eastwest;top=0;left=0;right=0;bottom=0;" parent="uIptmTDpXrDAQbzfnpnJ-32" vertex="1">
          <mxGeometry y="150" width="180" height="30" as="geometry" />
        </mxCell>
        <mxCell id="uIptmTDpXrDAQbzfnpnJ-49" value="" style="shape=partialRectangle;overflow=hidden;connectable=0;fillColor=none;top=0;left=0;bottom=0;right=0;" parent="uIptmTDpXrDAQbzfnpnJ-48" vertex="1">
          <mxGeometry width="30" height="30" as="geometry">
            <mxRectangle width="30" height="30" as="alternateBounds" />
          </mxGeometry>
        </mxCell>
        <mxCell id="uIptmTDpXrDAQbzfnpnJ-50" value="author_id" style="shape=partialRectangle;overflow=hidden;connectable=0;fillColor=none;top=0;left=0;bottom=0;right=0;align=left;spacingLeft=6;" parent="uIptmTDpXrDAQbzfnpnJ-48" vertex="1">
          <mxGeometry x="30" width="150" height="30" as="geometry">
            <mxRectangle width="150" height="30" as="alternateBounds" />
          </mxGeometry>
        </mxCell>
        <mxCell id="uIptmTDpXrDAQbzfnpnJ-51" value="" style="shape=partialRectangle;collapsible=0;dropTarget=0;pointerEvents=0;fillColor=none;points=[[0,0.5],[1,0.5]];portConstraint=eastwest;top=0;left=0;right=0;bottom=0;" parent="uIptmTDpXrDAQbzfnpnJ-32" vertex="1">
          <mxGeometry y="180" width="180" height="30" as="geometry" />
        </mxCell>
        <mxCell id="uIptmTDpXrDAQbzfnpnJ-52" value="" style="shape=partialRectangle;overflow=hidden;connectable=0;fillColor=none;top=0;left=0;bottom=0;right=0;" parent="uIptmTDpXrDAQbzfnpnJ-51" vertex="1">
          <mxGeometry width="30" height="30" as="geometry">
            <mxRectangle width="30" height="30" as="alternateBounds" />
          </mxGeometry>
        </mxCell>
        <mxCell id="uIptmTDpXrDAQbzfnpnJ-53" value="created_at" style="shape=partialRectangle;overflow=hidden;connectable=0;fillColor=none;top=0;left=0;bottom=0;right=0;align=left;spacingLeft=6;" parent="uIptmTDpXrDAQbzfnpnJ-51" vertex="1">
          <mxGeometry x="30" width="150" height="30" as="geometry">
            <mxRectangle width="150" height="30" as="alternateBounds" />
          </mxGeometry>
        </mxCell>
        <mxCell id="uIptmTDpXrDAQbzfnpnJ-54" value="" style="shape=partialRectangle;collapsible=0;dropTarget=0;pointerEvents=0;fillColor=none;points=[[0,0.5],[1,0.5]];portConstraint=eastwest;top=0;left=0;right=0;bottom=0;" parent="uIptmTDpXrDAQbzfnpnJ-32" vertex="1">
          <mxGeometry y="210" width="180" height="30" as="geometry" />
        </mxCell>
        <mxCell id="uIptmTDpXrDAQbzfnpnJ-55" value="" style="shape=partialRectangle;overflow=hidden;connectable=0;fillColor=none;top=0;left=0;bottom=0;right=0;" parent="uIptmTDpXrDAQbzfnpnJ-54" vertex="1">
          <mxGeometry width="30" height="30" as="geometry">
            <mxRectangle width="30" height="30" as="alternateBounds" />
          </mxGeometry>
        </mxCell>
        <mxCell id="uIptmTDpXrDAQbzfnpnJ-56" value="updated_at" style="shape=partialRectangle;overflow=hidden;connectable=0;fillColor=none;top=0;left=0;bottom=0;right=0;align=left;spacingLeft=6;" parent="uIptmTDpXrDAQbzfnpnJ-54" vertex="1">
          <mxGeometry x="30" width="150" height="30" as="geometry">
            <mxRectangle width="150" height="30" as="alternateBounds" />
          </mxGeometry>
        </mxCell>
        <mxCell id="uIptmTDpXrDAQbzfnpnJ-58" style="edgeStyle=orthogonalEdgeStyle;rounded=0;orthogonalLoop=1;jettySize=auto;html=1;entryX=1;entryY=0.5;entryDx=0;entryDy=0;startArrow=classic;startFill=1;endArrow=none;endFill=0;" parent="XOpUTY_rspNlDYiZGcJo-1" source="95JCEZ9YM2iMwwNToK2o-32" target="uIptmTDpXrDAQbzfnpnJ-39" edge="1">
          <mxGeometry relative="1" as="geometry" />
        </mxCell>
      </root>
    </mxGraphModel>
  </diagram>
  <diagram id="A0t_QMT82h10zWVFU__X" name="Session service">
    <mxGraphModel dx="1324" dy="848" grid="1" gridSize="10" guides="1" tooltips="1" connect="1" arrows="1" fold="1" page="1" pageScale="1" pageWidth="1169" pageHeight="827" math="0" shadow="0">
      <root>
        <mxCell id="SbKEIbU0L59WBMjJf7_t-0" />
        <mxCell id="SbKEIbU0L59WBMjJf7_t-1" parent="SbKEIbU0L59WBMjJf7_t-0" />
      </root>
    </mxGraphModel>
  </diagram>
  <diagram id="zF-sEraZYEUJfl2QqSFs" name="Staff app">
    <mxGraphModel dx="1324" dy="848" grid="1" gridSize="10" guides="1" tooltips="1" connect="1" arrows="1" fold="1" page="1" pageScale="1" pageWidth="1169" pageHeight="827" math="0" shadow="0">
      <root>
        <mxCell id="o6ZONw6gV1i194qAyuvk-0" />
        <mxCell id="o6ZONw6gV1i194qAyuvk-1" parent="o6ZONw6gV1i194qAyuvk-0" />
      </root>
    </mxGraphModel>
  </diagram>
  <diagram id="LLF6_lQIv8mxWUl1Rup8" name="Website app">
    <mxGraphModel dx="1324" dy="848" grid="1" gridSize="10" guides="1" tooltips="1" connect="1" arrows="1" fold="1" page="1" pageScale="1" pageWidth="1169" pageHeight="827" math="0" shadow="0">
      <root>
        <mxCell id="r2fL1KXJNA6jIqMOOhf1-0" />
        <mxCell id="r2fL1KXJNA6jIqMOOhf1-1" parent="r2fL1KXJNA6jIqMOOhf1-0" />
      </root>
    </mxGraphModel>
  </diagram>
  <diagram id="0rcRp-Ez7_2eqPoOjJS7" name="Credential service">
    <mxGraphModel dx="1324" dy="848" grid="1" gridSize="10" guides="1" tooltips="1" connect="1" arrows="1" fold="1" page="1" pageScale="1" pageWidth="1169" pageHeight="827" math="0" shadow="0">
      <root>
        <mxCell id="jHzaTOMbkW7biWjVczvZ-0" />
        <mxCell id="jHzaTOMbkW7biWjVczvZ-1" parent="jHzaTOMbkW7biWjVczvZ-0" />
      </root>
    </mxGraphModel>
  </diagram>
  <diagram id="z22_3FCR5aY2KUpQdKTP" name="Notification service">
    <mxGraphModel dx="1324" dy="848" grid="1" gridSize="10" guides="1" tooltips="1" connect="1" arrows="1" fold="1" page="1" pageScale="1" pageWidth="1169" pageHeight="827" math="0" shadow="0">
      <root>
        <mxCell id="jOWEySJJbr__GS-4DoDj-0" />
        <mxCell id="jOWEySJJbr__GS-4DoDj-1" parent="jOWEySJJbr__GS-4DoDj-0" />
      </root>
    </mxGraphModel>
  </diagram>
  <diagram id="jsqfzauZG5fFLpYY1AMA" name="Instances">
    <mxGraphModel dx="1324" dy="848" grid="1" gridSize="10" guides="1" tooltips="1" connect="1" arrows="1" fold="1" page="1" pageScale="1" pageWidth="1169" pageHeight="827" math="0" shadow="0">
      <root>
        <mxCell id="3xLYQyQZ-tD9hIK9m7tz-0" />
        <mxCell id="3xLYQyQZ-tD9hIK9m7tz-1" parent="3xLYQyQZ-tD9hIK9m7tz-0" />
      </root>
    </mxGraphModel>
  </diagram>
</mxfile>
